<svg width="198" height="50" viewBox="0 0 198 50" fill="none" xmlns="http://www.w3.org/2000/svg">
<g clip-path="url(#clip0_101_133)">
<path d="M90.718 0.194411V0.182617H78.916V22.2961H90.718V22.2858" fill="white"/>
<path d="M55.3125 0.182617H70.0649C74.1366 0.182617 77.4412 3.48489 77.4412 7.55377V22.2961H55.3125V0.182617Z" fill="white"/>
<path d="M180.297 0.194411V0.182617H165.545V22.2961H180.297V22.2858" fill="white"/>
<path d="M42.7725 0.625045C41.9257 0.625045 41.0037 -0.153349 40.2115 0.0265076C39.4193 0.206364 38.9015 1.31793 38.1624 1.67322C37.4233 2.02851 36.2416 1.73514 35.5969 2.24817C34.9523 2.7612 34.9832 3.9745 34.4669 4.62021C33.9506 5.26592 32.7645 5.49885 32.403 6.24776C32.0416 6.99667 32.6007 8.05811 32.4148 8.87484C32.229 9.69156 31.2656 10.3918 31.2656 11.238C31.2656 12.0842 32.2349 12.8096 32.4148 13.6012C32.5948 14.3929 32.0475 15.4912 32.403 16.2283C32.7586 16.9654 33.9535 17.2116 34.4669 17.8558C34.9803 18.5001 34.9493 19.7119 35.5969 20.2279C36.2446 20.7439 37.413 20.4417 38.1624 20.8028C38.9118 21.164 39.3927 22.2638 40.2115 22.4496C41.0303 22.6353 41.9257 21.851 42.7725 21.851C43.6193 21.851 44.5414 22.6294 45.3336 22.4496C46.1258 22.2697 46.6436 21.1581 47.3827 20.8028C48.1218 20.4475 49.3034 20.7409 49.9481 20.2279C50.5958 19.7119 50.5618 18.5016 51.0782 17.8558C51.5945 17.2101 52.7806 16.9772 53.142 16.2283C53.5035 15.4794 52.9443 14.4179 53.1302 13.6012C53.3161 12.7845 54.2794 12.0842 54.2794 11.238C54.2794 10.3918 53.3102 9.6665 53.1302 8.87484C52.9502 8.08318 53.4976 6.98487 53.142 6.24776C52.7865 5.51064 51.5915 5.26445 51.0782 4.62021C50.5648 3.97597 50.5958 2.76415 49.9481 2.24817C49.3005 1.73219 48.1321 2.03441 47.3827 1.67322C46.6333 1.31204 46.1523 0.212261 45.3336 0.0265076C44.5148 -0.159245 43.6193 0.625045 42.7725 0.625045Z" fill="white"/>
<path d="M31.5452 28.1651H26.4497C26.3921 28.2492 26.3346 28.3332 26.2771 28.4187C26.8745 28.9435 27.4558 29.489 28.0754 29.9873C28.5593 30.3765 28.5696 30.7745 28.366 31.3318C26.8008 35.6233 25.268 39.9265 23.7219 44.2254C23.626 44.4907 23.5066 44.7473 23.3812 45.048C23.2956 44.936 23.2543 44.8991 23.2351 44.8534C21.3822 40.2317 19.5249 35.6115 17.6985 30.9794C17.6159 30.7701 17.7295 30.3824 17.8903 30.1951C18.4715 29.5199 19.1118 28.8949 19.8214 28.1548H12.0749C12.3316 28.4467 12.4761 28.6619 12.6679 28.8197C14.0178 29.9386 14.8572 31.3863 15.3588 33.033C15.4679 33.3927 15.5048 33.8498 15.3824 34.1947C14.1742 37.6326 12.9261 41.0573 11.6869 44.4849C11.6235 44.6588 11.5364 44.8239 11.4582 44.9994C11.3712 44.936 11.3402 44.9242 11.3328 44.905C9.4637 40.2627 7.59161 35.6233 5.74903 30.9706C5.66642 30.7642 5.79476 30.3765 5.95851 30.1878C6.54124 29.5155 7.18149 28.8934 7.89699 28.1519H0.184406C0.122445 28.2359 0.060485 28.3199 0 28.4039C0.508959 28.8344 1.08578 29.2089 1.5077 29.7116C2.02404 30.3278 2.53005 31.003 2.83247 31.7387C5.15303 37.3894 7.42343 43.0607 9.70711 48.7277C10.1895 49.9233 10.2692 49.966 11.6471 49.6299C11.6471 48.9061 11.6176 48.1631 11.6559 47.4245C11.6884 46.7906 11.6854 46.1227 11.8905 45.536C13.0972 42.0701 14.3586 38.6233 15.6037 35.1707C15.6892 34.9348 15.7969 34.7063 15.9415 34.3643C16.1008 34.749 16.2203 35.0232 16.331 35.3019C18.0998 39.7644 19.8686 44.2254 21.6374 48.6879C21.959 49.4977 22.6106 49.8245 23.5921 49.6682C23.5921 48.6776 23.5715 47.7282 23.6024 46.7817C23.6157 46.3542 23.6718 45.9075 23.8149 45.508C25.4937 40.8214 27.1799 36.1363 28.9045 31.4659C29.1184 30.888 29.5211 30.3603 29.918 29.8738C30.3886 29.2959 30.9447 28.7887 31.5481 28.1651H31.5452Z" fill="white"/>
<path d="M72.0337 47.8477C71.628 47.4659 71.4745 47.059 71.4775 46.4973C71.5011 42.4638 71.4952 38.4303 71.4849 34.3968C71.4834 33.8086 71.4391 33.2145 71.355 32.6322C71.029 30.3869 69.5744 28.7004 67.3822 28.2346C64.4081 27.6021 61.7114 28.2596 59.4159 30.3044C58.5381 31.0857 57.7916 31.9821 57.321 33.0008C58.7697 33.1998 60.186 33.2897 61.5491 33.6081C63.0214 33.9516 64.5173 35.0204 65.131 35.9286C63.6056 35.2504 62.0699 35.1192 60.5267 35.2814C57.6618 35.5821 55.4416 36.9001 54.3086 39.6481C53.1151 42.542 53.9663 45.9165 56.309 47.9332C58.7255 50.0148 62.6363 50.4365 65.3523 48.9416C66.8747 48.1028 67.9044 46.8408 68.6244 45.2855C68.6878 45.2988 68.7498 45.312 68.8132 45.3253V49.7097H73.8335C73.1711 49.0197 72.6267 48.4094 72.0337 47.8521V47.8477ZM68.5255 44.3833C67.7495 47.4069 64.8713 49.0463 61.8382 48.2531C58.7314 47.4408 56.4152 44.4437 56.4934 41.3346C56.5628 38.591 58.01 36.5758 60.4176 35.8711C62.9978 35.1148 65.7329 36.0627 67.2244 38.2534C68.4916 40.1154 69.1009 42.1454 68.5255 44.3833ZM68.707 40.0844C66.9588 36.3826 64.4288 33.7924 60.4854 32.8563C60.8616 30.4415 62.9063 28.6577 65.2829 28.6532C66.8998 28.6503 67.9782 29.4198 68.4341 30.9634C68.5934 31.5 68.7203 32.0676 68.7321 32.6233C68.7807 34.9349 68.7822 37.2465 68.7955 39.5581C68.7955 39.6731 68.7571 39.7896 68.7055 40.0844H68.707Z" fill="white"/>
<path d="M44.3796 33.4296C44.1155 33.3574 43.8514 33.291 43.5874 33.2232L43.6346 33.0448H51.4858C51.3088 32.7736 51.2336 32.6424 51.1421 32.5229C48.3701 28.8713 44.6466 27.3926 40.1707 28.0324C32.287 29.1602 29.0149 37.5574 31.7456 43.534C33.985 48.4328 40.2164 51.1145 45.4108 49.5592C50.3912 48.0687 53.0068 42.2249 50.6287 37.8125C49.2907 35.3299 46.9893 34.1431 44.3796 33.4296ZM42.8306 28.8226C45.25 29.1204 47.3315 30.7435 47.6664 32.6217H35.2006C36.31 30.2246 39.8815 28.46 42.8306 28.8226ZM44.8015 48.3724C40.5454 49.136 36.5342 46.91 34.5972 42.6539C33.2474 39.6906 33.0408 36.6803 34.401 33.6404C34.5987 33.1996 34.8524 33.033 35.3334 33.0478C36.3616 33.0802 37.3913 33.0581 38.8356 33.0581C41.0898 32.9903 43.7246 33.1451 46.1779 34.3451C48.8732 35.6631 50.6789 37.6916 50.9252 40.7772C51.2218 44.4937 48.5943 47.6913 44.8 48.3724H44.8015Z" fill="white"/>
<path d="M81.1495 32.6852V28.0783C79.4485 28.6134 77.8538 29.1146 76.0879 29.6704C76.7665 30.1245 77.2725 30.5137 77.8257 30.8189C78.3642 31.1166 78.5294 31.5073 78.5265 32.1176C78.5014 36.844 78.5014 41.5689 78.5265 46.2953C78.5294 46.9573 78.3804 47.4629 77.8759 47.9155C77.2858 48.4447 76.765 49.0521 76.0997 49.745H83.56C82.877 49.0285 82.337 48.4167 81.7469 47.858C81.3265 47.46 81.1554 47.0369 81.1583 46.4457C81.1849 42.6953 81.1716 38.9463 81.1716 35.1958C81.1716 33.3988 81.772 30.8601 83.4803 30.325C84.8081 29.9093 86.2405 31.3068 87.6258 31.0665C87.8544 31.0267 88.2321 30.9692 88.269 30.8424C88.5257 29.9505 88.7101 29.038 88.9446 28.0193C85.618 28.5751 82.4064 28.9584 81.1495 32.6838V32.6852Z" fill="white"/>
<path d="M104.432 39.6111C103.876 39.2027 103.307 38.8887 102.721 38.6676C102.135 38.4464 101.626 38.2769 101.194 38.159L97.0339 36.9353C96.4837 36.7776 95.9157 36.5771 95.33 36.3309C94.7443 36.0847 94.2531 35.7456 93.8548 35.3137C93.4565 34.8817 93.2573 34.3068 93.2573 33.5888C93.2573 32.8709 93.4742 32.2517 93.9064 31.7018C94.3387 31.1519 94.9273 30.717 95.6693 30.3971C96.4114 30.0772 97.2596 29.918 98.2141 29.918C99.1981 29.9283 100.099 30.117 100.921 30.4856C101.743 30.8541 102.419 31.3775 102.95 32.0556C103.481 32.7338 103.82 33.5343 103.968 34.4586L106.239 34.0459C106.003 32.778 105.521 31.6797 104.794 30.751C104.066 29.8222 103.144 29.1072 102.028 28.6059C100.911 28.1047 99.6451 27.8541 98.2289 27.8541C96.8318 27.8438 95.5882 28.0752 94.4965 28.547C93.4048 29.0187 92.5448 29.6925 91.9148 30.5667C91.2849 31.4409 90.9707 32.4788 90.9707 33.6773C90.9707 34.3849 91.0843 35.0144 91.31 35.5643C91.5357 36.1142 91.8529 36.5933 92.2615 37.0017C92.6702 37.4101 93.1496 37.758 93.6999 38.0484C94.2501 38.3388 94.8506 38.5762 95.4997 38.7634L100.884 40.3703C101.249 40.4779 101.622 40.618 102.006 40.7905C102.389 40.9629 102.743 41.1767 103.068 41.4318C103.392 41.6868 103.653 42.0097 103.85 42.3974C104.046 42.7851 104.145 43.2554 104.145 43.8053C104.145 44.6412 103.909 45.3635 103.436 45.9724C102.964 46.5812 102.315 47.0515 101.489 47.3803C100.663 47.709 99.7292 47.8741 98.6862 47.8741C97.1033 47.8741 95.7401 47.4835 94.5998 46.7021C93.4594 45.9208 92.7115 44.8416 92.3574 43.4662L90.1445 43.8347C90.3806 45.0923 90.8851 46.1788 91.6567 47.0928C92.4282 48.0068 93.4078 48.7115 94.5924 49.2083C95.777 49.7051 97.1121 49.9528 98.5977 49.9528C99.7085 49.9528 100.734 49.8128 101.674 49.5326C102.613 49.2525 103.434 48.8471 104.137 48.3164C104.841 47.7857 105.387 47.1326 105.775 46.3557C106.163 45.5788 106.357 44.7001 106.357 43.7168C106.357 42.7335 106.176 41.8696 105.812 41.2106C105.447 40.5516 104.988 40.0194 104.432 39.6111Z" fill="white"/>
<path d="M124.63 31.8346C124.232 30.9206 123.646 30.1614 122.875 29.5569C122.103 28.9525 121.161 28.5663 120.05 28.3997C119.784 28.351 119.522 28.3186 119.261 28.3039C118.999 28.2891 118.766 28.2817 118.56 28.2817H110.357V49.5107H112.526V41.4466H118.56C118.766 41.4466 118.999 41.4363 119.261 41.4171C119.522 41.398 119.784 41.3685 120.05 41.3287C121.152 41.1621 122.089 40.7758 122.86 40.1714C123.632 39.567 124.22 38.8077 124.623 37.8937C125.026 36.9797 125.228 35.9728 125.228 34.8715C125.228 33.7703 125.029 32.7487 124.63 31.8346ZM122.654 36.7733C122.422 37.3822 122.074 37.9085 121.606 38.3507C121.139 38.793 120.541 39.0923 119.814 39.25C119.588 39.2987 119.356 39.334 119.12 39.3532C118.884 39.3724 118.678 39.3827 118.501 39.3827H112.526V30.3604H118.501C118.678 30.3604 118.884 30.3678 119.12 30.3825C119.356 30.3973 119.588 30.4297 119.814 30.4783C120.541 30.6361 121.139 30.9354 121.606 31.3776C122.074 31.8199 122.422 32.3477 122.654 32.9624C122.885 33.5772 123 34.2126 123 34.8715C123 35.5305 122.885 36.1644 122.654 36.7733Z" fill="white"/>
<path d="M132.397 28.2817L125.08 49.5107H127.337L129.112 44.3656H138.549L140.334 49.5107H142.591L135.274 28.2817H132.397ZM129.813 42.3312L133.815 30.7275L137.842 42.3312H129.813Z" fill="white"/>
<path d="M149.26 31.0532C150.362 30.2969 151.743 29.918 153.406 29.918C155.313 29.918 156.854 30.4089 158.023 31.3923C159.193 32.3756 160.005 33.7068 160.458 35.3874L162.67 34.8125C162.091 32.6896 161.018 30.9972 159.454 29.7337C157.891 28.4703 155.874 27.8394 153.406 27.8394C151.292 27.8394 149.507 28.3082 148.051 29.2472C146.595 30.1863 145.494 31.4851 144.746 33.1466C143.998 34.808 143.625 36.7245 143.625 38.8961C143.625 41.0676 143.998 42.9841 144.746 44.6456C145.494 46.307 146.595 47.6058 148.051 48.5449C149.507 49.484 151.292 49.9528 153.406 49.9528C155.874 49.9528 157.891 49.3218 159.454 48.0584C161.018 46.795 162.091 45.1026 162.67 42.9797L160.458 42.4048C160.005 44.0751 159.193 45.4048 158.023 46.3925C156.854 47.3803 155.313 47.8741 153.406 47.8741C151.743 47.8741 150.355 47.4938 149.238 46.7316C148.122 45.9694 147.287 44.9154 146.73 43.5694C146.174 42.2234 145.901 40.6652 145.912 38.8961C145.931 37.127 146.218 35.5673 146.775 34.2154C147.331 32.8635 148.158 31.8095 149.26 31.0532Z" fill="white"/>
<path d="M165.916 49.5107H179.193V47.4305H168.085V39.7807H177.423V37.7006H168.085V30.3604H179.193V28.2817H165.916V49.5107Z" fill="white"/>
<path d="M196.544 41.2106C196.18 40.5516 195.721 40.0194 195.165 39.6111C194.609 39.2027 194.038 38.8887 193.453 38.6676C192.868 38.4464 192.359 38.2769 191.927 38.159L187.766 36.9353C187.216 36.7776 186.648 36.5771 186.062 36.3309C185.477 36.0847 184.986 35.7456 184.587 35.3137C184.189 34.8817 183.99 34.3068 183.99 33.5888C183.99 32.8709 184.207 32.2517 184.639 31.7018C185.071 31.1519 185.66 30.717 186.402 30.3971C187.144 30.0772 187.992 29.918 188.947 29.918C189.931 29.9283 190.832 30.117 191.654 30.4856C192.475 30.8541 193.151 31.3775 193.682 32.0556C194.213 32.7338 194.552 33.5343 194.7 34.4586L196.972 34.0459C196.736 32.778 196.253 31.6797 195.526 30.751C194.799 29.8222 193.875 29.1072 192.76 28.6059C191.643 28.1047 190.378 27.8541 188.961 27.8541C187.564 27.8438 186.321 28.0752 185.229 28.547C184.137 29.0187 183.277 29.6925 182.647 30.5667C182.017 31.4409 181.703 32.4788 181.703 33.6773C181.703 34.3849 181.817 35.0144 182.042 35.5643C182.268 36.1142 182.585 36.5933 182.994 37.0017C183.403 37.4101 183.882 37.758 184.432 38.0484C184.983 38.3388 185.583 38.5762 186.232 38.7634L191.617 40.3703C191.981 40.4779 192.354 40.618 192.738 40.7905C193.121 40.9629 193.476 41.1767 193.8 41.4318C194.125 41.6868 194.386 42.0097 194.582 42.3974C194.778 42.7851 194.877 43.2554 194.877 43.8053C194.877 44.6412 194.641 45.3635 194.169 45.9724C193.697 46.5812 193.048 47.0515 192.222 47.3803C191.395 47.709 190.462 47.8741 189.419 47.8741C187.836 47.8741 186.473 47.4835 185.332 46.7021C184.192 45.9208 183.444 44.8416 183.09 43.4662L180.877 43.8347C181.113 45.0923 181.618 46.1788 182.389 47.0928C183.161 48.0068 184.14 48.7115 185.325 49.2083C186.509 49.7051 187.845 49.9528 189.33 49.9528C190.441 49.9528 191.466 49.8128 192.406 49.5326C193.346 49.2525 194.166 48.8471 194.87 48.3164C195.573 47.7857 196.119 47.1326 196.507 46.3557C196.895 45.5788 197.09 44.7001 197.09 43.7168C197.09 42.7335 196.908 41.8696 196.544 41.2106Z" fill="white"/>
<path d="M30.2337 22.2961H11.802L0 0.182617H30.2337V22.2961Z" fill="white"/>
<path d="M153.148 22.2961C159.259 22.2961 164.213 17.3458 164.213 11.2393C164.213 5.13288 159.259 0.182617 153.148 0.182617C147.038 0.182617 142.084 5.13288 142.084 11.2393C142.084 17.3458 147.038 22.2961 153.148 22.2961Z" fill="white"/>
<path d="M117.314 14.9249C121.387 14.9249 124.69 11.6241 124.69 7.55377C124.69 3.48342 121.389 0.182617 117.314 0.182617H109.896V14.9249H117.314Z" fill="white"/>
<path d="M99.5696 0.182617H108.421V14.9249C108.421 18.9938 105.117 22.2961 101.045 22.2961H92.1934V7.55377C92.1934 3.48489 95.4979 0.182617 99.5696 0.182617Z" fill="white"/>
<path d="M189.148 0.182617H197.999V14.9249C197.999 18.9938 194.695 22.2961 190.623 22.2961H181.771V7.55377C181.771 3.48489 185.076 0.182617 189.148 0.182617Z" fill="white"/>
<path d="M126.343 0.182617L143.869 22.2961H126.166" fill="white"/>
</g>
<defs>
<clipPath id="clip0_101_133">
<rect width="198" height="50" fill="white"/>
</clipPath>
</defs>
</svg>
