<svg width="376" height="131" viewBox="0 0 376 131" fill="none" xmlns="http://www.w3.org/2000/svg">
<rect width="375.928" height="130.758" rx="65.3788" fill="white"/>
<rect x="0.5" y="0.5" width="374.928" height="129.758" rx="64.8788" stroke="black" stroke-opacity="0.1"/>
<path d="M154.033 81.724V44.0658H169.253C169.62 44.0658 170.073 44.0832 170.613 44.1181C171.154 44.1355 171.668 44.1878 172.156 44.275C174.248 44.6063 175.992 45.3211 177.387 46.4194C178.799 47.5178 179.853 48.9038 180.551 50.5775C181.248 52.2512 181.597 54.0993 181.597 56.1216C181.597 59.1204 180.83 61.7094 179.296 63.8887C177.761 66.0505 175.46 67.4017 172.392 67.9421L170.169 68.2037H159.499V81.724H154.033ZM176.053 81.724L168.626 66.3992L174.144 64.987L182.303 81.724H176.053ZM159.499 63.0257H169.044C169.393 63.0257 169.776 63.0082 170.195 62.9734C170.631 62.9385 171.04 62.8775 171.424 62.7903C172.54 62.5288 173.438 62.0493 174.118 61.352C174.798 60.6371 175.286 59.8177 175.582 58.8937C175.878 57.9697 176.027 57.0457 176.027 56.1216C176.027 55.1976 175.878 54.2823 175.582 53.3757C175.286 52.4517 174.798 51.641 174.118 50.9436C173.438 50.2288 172.54 49.7407 171.424 49.4792C171.04 49.3746 170.631 49.3048 170.195 49.2699C169.776 49.2351 169.393 49.2176 169.044 49.2176H159.499V63.0257Z" fill="url(#paint0_linear_1035_432)"/>
<path d="M200.316 82.5085C197.491 82.5085 195.042 81.8722 192.967 80.5995C190.892 79.3268 189.288 77.5746 188.155 75.343C187.039 73.094 186.482 70.505 186.482 67.576C186.482 64.6296 187.057 62.0406 188.208 59.809C189.358 57.56 190.971 55.8165 193.046 54.5787C195.12 53.3234 197.544 52.6958 200.316 52.6958C203.14 52.6958 205.59 53.3322 207.664 54.6049C209.739 55.8776 211.343 57.6297 212.476 59.8613C213.609 62.0929 214.176 64.6645 214.176 67.576C214.176 70.5224 213.601 73.1201 212.45 75.3692C211.317 77.6008 209.713 79.3529 207.638 80.6256C205.563 81.8809 203.123 82.5085 200.316 82.5085ZM200.316 77.3567C203.018 77.3567 205.032 76.4501 206.357 74.6369C207.699 72.8063 208.37 70.4527 208.37 67.576C208.37 64.6296 207.69 62.276 206.331 60.5151C204.988 58.7368 202.983 57.8477 200.316 57.8477C198.485 57.8477 196.977 58.2661 195.791 59.1029C194.606 59.9223 193.725 61.0643 193.15 62.5288C192.575 63.9758 192.287 65.6582 192.287 67.576C192.287 70.5399 192.967 72.9109 194.327 74.6892C195.687 76.4675 197.683 77.3567 200.316 77.3567Z" fill="url(#paint1_linear_1035_432)"/>
<path d="M233.182 82.5085C230.479 82.5085 228.213 81.8548 226.382 80.5472C224.552 79.2222 223.166 77.4351 222.224 75.1861C221.283 72.9371 220.812 70.4004 220.812 67.576C220.812 64.7517 221.274 62.215 222.198 59.9659C223.139 57.7169 224.517 55.9473 226.33 54.6572C228.161 53.3496 230.41 52.6958 233.077 52.6958C235.727 52.6958 238.011 53.3496 239.929 54.6572C241.864 55.9473 243.355 57.7169 244.401 59.9659C245.447 62.1975 245.97 64.7342 245.97 67.576C245.97 70.4004 245.447 72.9458 244.401 75.2123C243.372 77.4613 241.899 79.2396 239.981 80.5472C238.081 81.8548 235.814 82.5085 233.182 82.5085ZM219.897 81.724V44.0658H225.388V61.4043H224.761V81.724H219.897ZM232.423 77.5659C234.167 77.5659 235.605 77.1213 236.738 76.2322C237.889 75.343 238.743 74.1488 239.301 72.6494C239.876 71.1326 240.164 69.4415 240.164 67.576C240.164 65.728 239.876 64.0543 239.301 62.5549C238.743 61.0556 237.88 59.8613 236.712 58.9722C235.544 58.083 234.053 57.6384 232.24 57.6384C230.532 57.6384 229.119 58.0569 228.004 58.8937C226.905 59.7306 226.086 60.8987 225.545 62.398C225.022 63.8974 224.761 65.6234 224.761 67.576C224.761 69.5287 225.022 71.2547 225.545 72.754C226.068 74.2534 226.897 75.4302 228.03 76.2845C229.163 77.1388 230.627 77.5659 232.423 77.5659Z" fill="url(#paint2_linear_1035_432)"/>
<path d="M252.267 81.724V43.2812H257.733V81.724H252.267Z" fill="url(#paint3_linear_1035_432)"/>
<path d="M277.851 82.5085C275.026 82.5085 272.577 81.8722 270.502 80.5995C268.428 79.3268 266.824 77.5746 265.69 75.343C264.575 73.094 264.017 70.505 264.017 67.576C264.017 64.6296 264.592 62.0406 265.743 59.809C266.893 57.56 268.506 55.8165 270.581 54.5787C272.655 53.3234 275.079 52.6958 277.851 52.6958C280.675 52.6958 283.125 53.3322 285.199 54.6049C287.274 55.8776 288.878 57.6297 290.011 59.8613C291.145 62.0929 291.711 64.6645 291.711 67.576C291.711 70.5224 291.136 73.1201 289.985 75.3692C288.852 77.6008 287.248 79.3529 285.173 80.6256C283.099 81.8809 280.658 82.5085 277.851 82.5085ZM277.851 77.3567C280.553 77.3567 282.567 76.4501 283.892 74.6369C285.234 72.8063 285.906 70.4527 285.906 67.576C285.906 64.6296 285.226 62.276 283.866 60.5151C282.523 58.7368 280.518 57.8477 277.851 57.8477C276.02 57.8477 274.512 58.2661 273.327 59.1029C272.141 59.9223 271.261 61.0643 270.685 62.5288C270.11 63.9758 269.822 65.6582 269.822 67.576C269.822 70.5399 270.502 72.9109 271.862 74.6892C273.222 76.4675 275.218 77.3567 277.851 77.3567Z" fill="url(#paint4_linear_1035_432)"/>
<path d="M293.554 81.724L304.119 67.4453L293.789 53.4803H300.275L307.309 63.1826L314.266 53.4803H320.751L310.421 67.4453L321.013 81.724H314.501L307.309 71.708L300.065 81.724H293.554Z" fill="url(#paint5_linear_1035_432)"/>
<circle cx="65.3779" cy="65.3759" r="49.0341" fill="#F6F6F6"/>
<mask id="mask0_1035_432" style="mask-type:alpha" maskUnits="userSpaceOnUse" x="16" y="16" width="99" height="99">
<circle cx="65.3779" cy="65.3759" r="49.0341" fill="#D9D9D9"/>
</mask>
<g mask="url(#mask0_1035_432)">
</g>
<path d="M45.6755 32.0293L32.0312 85.0773L85.0792 98.7216L98.7235 45.6736L45.6755 32.0293ZM69.2295 71.8741L58.8787 69.1982L61.5546 58.8474L71.9055 61.5233L69.2295 71.8741Z" fill="black"/>
<defs>
<linearGradient id="paint0_linear_1035_432" x1="139.646" y1="81.7232" x2="331.876" y2="81.7232" gradientUnits="userSpaceOnUse">
<stop stop-color="#78E2F2"/>
<stop offset="0.307292" stop-color="#AFB8EE"/>
<stop offset="0.541667" stop-color="#FE7CE8"/>
<stop offset="0.776042" stop-color="#FF6D7F"/>
<stop offset="1" stop-color="#FF9742"/>
</linearGradient>
<linearGradient id="paint1_linear_1035_432" x1="139.646" y1="81.7232" x2="331.876" y2="81.7232" gradientUnits="userSpaceOnUse">
<stop stop-color="#78E2F2"/>
<stop offset="0.307292" stop-color="#AFB8EE"/>
<stop offset="0.541667" stop-color="#FE7CE8"/>
<stop offset="0.776042" stop-color="#FF6D7F"/>
<stop offset="1" stop-color="#FF9742"/>
</linearGradient>
<linearGradient id="paint2_linear_1035_432" x1="139.646" y1="81.7232" x2="331.876" y2="81.7232" gradientUnits="userSpaceOnUse">
<stop stop-color="#78E2F2"/>
<stop offset="0.307292" stop-color="#AFB8EE"/>
<stop offset="0.541667" stop-color="#FE7CE8"/>
<stop offset="0.776042" stop-color="#FF6D7F"/>
<stop offset="1" stop-color="#FF9742"/>
</linearGradient>
<linearGradient id="paint3_linear_1035_432" x1="139.646" y1="81.7232" x2="331.876" y2="81.7232" gradientUnits="userSpaceOnUse">
<stop stop-color="#78E2F2"/>
<stop offset="0.307292" stop-color="#AFB8EE"/>
<stop offset="0.541667" stop-color="#FE7CE8"/>
<stop offset="0.776042" stop-color="#FF6D7F"/>
<stop offset="1" stop-color="#FF9742"/>
</linearGradient>
<linearGradient id="paint4_linear_1035_432" x1="139.646" y1="81.7232" x2="331.876" y2="81.7232" gradientUnits="userSpaceOnUse">
<stop stop-color="#78E2F2"/>
<stop offset="0.307292" stop-color="#AFB8EE"/>
<stop offset="0.541667" stop-color="#FE7CE8"/>
<stop offset="0.776042" stop-color="#FF6D7F"/>
<stop offset="1" stop-color="#FF9742"/>
</linearGradient>
<linearGradient id="paint5_linear_1035_432" x1="139.646" y1="81.7232" x2="331.876" y2="81.7232" gradientUnits="userSpaceOnUse">
<stop stop-color="#78E2F2"/>
<stop offset="0.307292" stop-color="#AFB8EE"/>
<stop offset="0.541667" stop-color="#FE7CE8"/>
<stop offset="0.776042" stop-color="#FF6D7F"/>
<stop offset="1" stop-color="#FF9742"/>
</linearGradient>
</defs>
</svg>
