<svg width="611" height="131" viewBox="0 0 611 131" fill="none" xmlns="http://www.w3.org/2000/svg">
<rect width="611" height="131" rx="65.5" fill="white"/>
<rect x="0.5" y="0.5" width="610" height="130" rx="65" stroke="black" stroke-opacity="0.1"/>
<path d="M154 81.4462V43.7846H169.228C169.594 43.7846 170.048 43.8021 170.589 43.8369C171.13 43.8544 171.644 43.9067 172.133 43.9938C174.226 44.3251 175.97 45.04 177.366 46.1385C178.778 47.2369 179.834 48.6231 180.532 50.2969C181.229 51.9708 181.578 53.819 181.578 55.8415C181.578 58.8405 180.811 61.4297 179.276 63.6092C177.741 65.7713 175.438 67.1226 172.368 67.6631L170.144 67.9246H159.469V81.4462H154ZM176.031 81.4462L168.6 66.12L174.121 64.7077L182.285 81.4462H176.031ZM159.469 62.7462H169.019C169.368 62.7462 169.751 62.7287 170.17 62.6938C170.606 62.659 171.016 62.5979 171.4 62.5108C172.516 62.2492 173.415 61.7697 174.095 61.0723C174.775 60.3574 175.264 59.5379 175.56 58.6138C175.857 57.6897 176.005 56.7656 176.005 55.8415C176.005 54.9174 175.857 54.002 175.56 53.0954C175.264 52.1713 174.775 51.3605 174.095 50.6631C173.415 49.9482 172.516 49.46 171.4 49.1985C171.016 49.0938 170.606 49.0241 170.17 48.9892C169.751 48.9544 169.368 48.9369 169.019 48.9369H159.469V62.7462Z" fill="url(#paint0_linear_1035_442)"/>
<path d="M200.568 82.2308C197.76 82.2308 195.292 81.6205 193.164 80.4C191.053 79.1621 189.405 77.4446 188.218 75.2477C187.05 73.0333 186.465 70.4703 186.465 67.5585C186.465 64.4723 187.041 61.7959 188.192 59.5292C189.361 57.2626 190.983 55.5103 193.059 54.2723C195.135 53.0344 197.551 52.4154 200.307 52.4154C203.185 52.4154 205.636 53.0867 207.659 54.4292C209.683 55.7544 211.191 57.6462 212.186 60.1046C213.197 62.5631 213.599 65.4836 213.389 68.8662H207.921V66.8785C207.886 63.6005 207.258 61.1769 206.037 59.6077C204.833 58.0385 202.993 57.2538 200.516 57.2538C197.777 57.2538 195.719 58.1169 194.341 59.8431C192.963 61.5692 192.274 64.0626 192.274 67.3231C192.274 70.4267 192.963 72.8328 194.341 74.5415C195.719 76.2328 197.708 77.0785 200.307 77.0785C202.016 77.0785 203.49 76.6949 204.729 75.9277C205.985 75.1431 206.961 74.0272 207.659 72.58L213.023 74.28C211.924 76.8082 210.258 78.7697 208.025 80.1646C205.793 81.542 203.307 82.2308 200.568 82.2308ZM190.495 68.8662V64.6031H210.668V68.8662H190.495Z" fill="url(#paint1_linear_1035_442)"/>
<path d="M226.729 82.2308C224.636 82.2308 222.883 81.8472 221.47 81.08C220.057 80.2954 218.984 79.2667 218.252 77.9938C217.536 76.7036 217.179 75.2913 217.179 73.7569C217.179 72.3272 217.432 71.0718 217.938 69.9908C218.443 68.9097 219.194 67.9944 220.188 67.2446C221.182 66.4774 222.403 65.8585 223.851 65.3877C225.107 65.0215 226.529 64.699 228.116 64.42C229.703 64.141 231.369 63.8795 233.113 63.6354C234.875 63.3913 236.62 63.1472 238.346 62.9031L236.358 64.0015C236.393 61.7872 235.922 60.1482 234.945 59.0846C233.986 58.0036 232.328 57.4631 229.974 57.4631C228.491 57.4631 227.13 57.8118 225.892 58.5092C224.653 59.1892 223.79 60.3226 223.301 61.9092L218.199 60.34C218.897 57.9164 220.223 55.9897 222.176 54.56C224.147 53.1303 226.764 52.4154 230.026 52.4154C232.555 52.4154 234.753 52.8513 236.62 53.7231C238.503 54.5774 239.882 55.9374 240.754 57.8031C241.207 58.7272 241.486 59.7036 241.591 60.7323C241.696 61.761 241.748 62.8682 241.748 64.0538V81.4462H236.907V74.9862L237.849 75.8231C236.681 77.9851 235.189 79.5979 233.375 80.6615C231.578 81.7077 229.363 82.2308 226.729 82.2308ZM227.697 77.7585C229.25 77.7585 230.584 77.4882 231.701 76.9477C232.817 76.3897 233.715 75.6836 234.396 74.8292C235.076 73.9749 235.521 73.0856 235.73 72.1615C236.026 71.3246 236.192 70.3831 236.227 69.3369C236.279 68.2908 236.306 67.4538 236.306 66.8262L238.085 67.48C236.358 67.7415 234.788 67.9769 233.375 68.1862C231.962 68.3954 230.68 68.6046 229.529 68.8138C228.395 69.0056 227.383 69.241 226.494 69.52C225.744 69.7815 225.072 70.0954 224.479 70.4615C223.903 70.8277 223.441 71.2723 223.092 71.7954C222.761 72.3185 222.595 72.9549 222.595 73.7046C222.595 74.4369 222.778 75.1169 223.144 75.7446C223.511 76.3549 224.069 76.8431 224.819 77.2092C225.569 77.5754 226.529 77.7585 227.697 77.7585Z" fill="url(#paint2_linear_1035_442)"/>
<path d="M259.767 82.2308C257.133 82.2308 254.857 81.5769 252.938 80.2692C251.037 78.9615 249.563 77.1831 248.516 74.9338C247.487 72.6672 246.972 70.1215 246.972 67.2969C246.972 64.4549 247.496 61.9179 248.542 59.6862C249.589 57.4369 251.072 55.6672 252.99 54.3769C254.927 53.0692 257.22 52.4154 259.872 52.4154C262.541 52.4154 264.782 53.0692 266.596 54.3769C268.428 55.6672 269.806 57.4369 270.73 59.6862C271.672 61.9354 272.143 64.4723 272.143 67.2969C272.143 70.1215 271.672 72.6585 270.73 74.9077C269.789 77.1569 268.402 78.9441 266.57 80.2692C264.739 81.5769 262.471 82.2308 259.767 82.2308ZM260.526 77.2877C262.323 77.2877 263.788 76.8605 264.922 76.0062C266.056 75.1518 266.884 73.9749 267.407 72.4754C267.931 70.9759 268.192 69.2497 268.192 67.2969C268.192 65.3441 267.922 63.6179 267.381 62.1185C266.858 60.619 266.038 59.4508 264.922 58.6138C263.823 57.7769 262.419 57.3585 260.709 57.3585C258.895 57.3585 257.404 57.8031 256.235 58.6923C255.066 59.5815 254.194 60.7759 253.618 62.2754C253.06 63.7749 252.781 65.4487 252.781 67.2969C252.781 69.1626 253.06 70.8538 253.618 72.3708C254.194 73.8703 255.049 75.0646 256.183 75.9538C257.334 76.8431 258.782 77.2877 260.526 77.2877ZM268.192 81.4462V61.1246H267.564V43.7846H273.059V81.4462H268.192Z" fill="url(#paint3_linear_1035_442)"/>
<path d="M284.2 94L289.669 79.1185L289.747 83.5123L277.423 53.2H283.127L292.338 76.6077H290.663L299.455 53.2H305.002L289.407 94H284.2Z" fill="url(#paint4_linear_1035_442)"/>
<path d="M319.577 81.4462V43.7846H334.805C335.171 43.7846 335.625 43.8021 336.166 43.8369C336.706 43.8544 337.221 43.9067 337.709 43.9938C339.803 44.3251 341.547 45.04 342.942 46.1385C344.355 47.2369 345.411 48.6231 346.108 50.2969C346.806 51.9708 347.155 53.819 347.155 55.8415C347.155 57.8815 346.806 59.7385 346.108 61.4123C345.411 63.0862 344.355 64.4723 342.942 65.5708C341.547 66.6692 339.803 67.3841 337.709 67.7154C337.221 67.7851 336.698 67.8374 336.139 67.8723C335.599 67.9072 335.154 67.9246 334.805 67.9246H325.045V81.4462H319.577ZM325.045 62.7462H334.596C334.945 62.7462 335.328 62.7287 335.747 62.6938C336.183 62.659 336.593 62.5979 336.977 62.5108C338.093 62.2492 338.991 61.7697 339.672 61.0723C340.352 60.3574 340.84 59.5379 341.137 58.6138C341.434 57.6897 341.582 56.7656 341.582 55.8415C341.582 54.9174 341.434 54.002 341.137 53.0954C340.84 52.1713 340.352 51.3605 339.672 50.6631C338.991 49.9482 338.093 49.46 336.977 49.1985C336.593 49.0938 336.183 49.0241 335.747 48.9892C335.328 48.9544 334.945 48.9369 334.596 48.9369H325.045V62.7462Z" fill="url(#paint5_linear_1035_442)"/>
<path d="M352.909 81.4462V43H358.377V81.4462H352.909Z" fill="url(#paint6_linear_1035_442)"/>
<path d="M374.215 82.2308C372.122 82.2308 370.369 81.8472 368.956 81.08C367.543 80.2954 366.47 79.2667 365.738 77.9938C365.022 76.7036 364.665 75.2913 364.665 73.7569C364.665 72.3272 364.918 71.0718 365.424 69.9908C365.93 68.9097 366.68 67.9944 367.674 67.2446C368.668 66.4774 369.889 65.8585 371.337 65.3877C372.593 65.0215 374.015 64.699 375.602 64.42C377.189 64.141 378.855 63.8795 380.599 63.6354C382.361 63.3913 384.106 63.1472 385.833 62.9031L383.844 64.0015C383.879 61.7872 383.408 60.1482 382.431 59.0846C381.472 58.0036 379.815 57.4631 377.46 57.4631C375.977 57.4631 374.616 57.8118 373.378 58.5092C372.139 59.1892 371.276 60.3226 370.788 61.9092L365.685 60.34C366.383 57.9164 367.709 55.9897 369.662 54.56C371.634 53.1303 374.25 52.4154 377.512 52.4154C380.041 52.4154 382.239 52.8513 384.106 53.7231C385.99 54.5774 387.368 55.9374 388.24 57.8031C388.693 58.7272 388.972 59.7036 389.077 60.7323C389.182 61.761 389.234 62.8682 389.234 64.0538V81.4462H384.393V74.9862L385.335 75.8231C384.167 77.9851 382.675 79.5979 380.861 80.6615C379.064 81.7077 376.849 82.2308 374.215 82.2308ZM375.183 77.7585C376.736 77.7585 378.07 77.4882 379.187 76.9477C380.303 76.3897 381.201 75.6836 381.882 74.8292C382.562 73.9749 383.007 73.0856 383.216 72.1615C383.513 71.3246 383.678 70.3831 383.713 69.3369C383.765 68.2908 383.792 67.4538 383.792 66.8262L385.571 67.48C383.844 67.7415 382.274 67.9769 380.861 68.1862C379.448 68.3954 378.166 68.6046 377.015 68.8138C375.881 69.0056 374.869 69.241 373.98 69.52C373.23 69.7815 372.558 70.0954 371.965 70.4615C371.389 70.8277 370.927 71.2723 370.578 71.7954C370.247 72.3185 370.081 72.9549 370.081 73.7046C370.081 74.4369 370.264 75.1169 370.631 75.7446C370.997 76.3549 371.555 76.8431 372.305 77.2092C373.055 77.5754 374.015 77.7585 375.183 77.7585Z" fill="url(#paint7_linear_1035_442)"/>
<path d="M398.264 94L403.733 79.1185L403.811 83.5123L391.487 53.2H397.191L406.402 76.6077H404.727L413.519 53.2H419.066L403.471 94H398.264Z" fill="url(#paint8_linear_1035_442)"/>
<path d="M434.676 82.2308C431.867 82.2308 429.399 81.6205 427.271 80.4C425.16 79.1621 423.512 77.4446 422.326 75.2477C421.157 73.0333 420.573 70.4703 420.573 67.5585C420.573 64.4723 421.148 61.7959 422.299 59.5292C423.468 57.2626 425.09 55.5103 427.166 54.2723C429.242 53.0344 431.658 52.4154 434.414 52.4154C437.292 52.4154 439.743 53.0867 441.766 54.4292C443.79 55.7544 445.299 57.6462 446.293 60.1046C447.305 62.5631 447.706 65.4836 447.497 68.8662H442.028V66.8785C441.993 63.6005 441.365 61.1769 440.144 59.6077C438.941 58.0385 437.1 57.2538 434.623 57.2538C431.885 57.2538 429.826 58.1169 428.448 59.8431C427.07 61.5692 426.381 64.0626 426.381 67.3231C426.381 70.4267 427.07 72.8328 428.448 74.5415C429.826 76.2328 431.815 77.0785 434.414 77.0785C436.123 77.0785 437.597 76.6949 438.836 75.9277C440.092 75.1431 441.069 74.0272 441.766 72.58L447.13 74.28C446.031 76.8082 444.366 78.7697 442.133 80.1646C439.9 81.542 437.414 82.2308 434.676 82.2308ZM424.602 68.8662V64.6031H444.775V68.8662H424.602Z" fill="url(#paint9_linear_1035_442)"/>
<path d="M453.367 81.4462V53.2H458.234V60.0523L457.553 59.1631C457.902 58.2564 458.356 57.4282 458.914 56.6785C459.472 55.9113 460.118 55.2836 460.85 54.7954C461.565 54.2723 462.359 53.8713 463.231 53.5923C464.121 53.2959 465.028 53.1215 465.952 53.0692C466.877 52.9995 467.767 53.0431 468.621 53.2V58.3262C467.697 58.082 466.668 58.0123 465.534 58.1169C464.417 58.2215 463.388 58.579 462.446 59.1892C461.557 59.7646 460.85 60.4621 460.327 61.2815C459.821 62.101 459.455 63.0164 459.228 64.0277C459.001 65.0215 458.888 66.0764 458.888 67.1923V81.4462H453.367Z" fill="url(#paint10_linear_1035_442)"/>
<path d="M484.081 81.4462V43.7846H489.026L502.684 72.1092L516.264 43.7846H521.261V81.42H516.081V55.6585L503.914 81.4462H501.428L489.235 55.6585V81.4462H484.081Z" fill="url(#paint11_linear_1035_442)"/>
<path d="M541.125 82.2308C538.317 82.2308 535.849 81.6205 533.72 80.4C531.61 79.1621 529.961 77.4446 528.775 75.2477C527.607 73.0333 527.022 70.4703 527.022 67.5585C527.022 64.4723 527.598 61.7959 528.749 59.5292C529.918 57.2626 531.54 55.5103 533.616 54.2723C535.692 53.0344 538.107 52.4154 540.864 52.4154C543.742 52.4154 546.193 53.0867 548.216 54.4292C550.239 55.7544 551.748 57.6462 552.743 60.1046C553.754 62.5631 554.155 65.4836 553.946 68.8662H548.478V66.8785C548.443 63.6005 547.815 61.1769 546.594 59.6077C545.39 58.0385 543.55 57.2538 541.073 57.2538C538.334 57.2538 536.276 58.1169 534.898 59.8431C533.52 61.5692 532.831 64.0626 532.831 67.3231C532.831 70.4267 533.52 72.8328 534.898 74.5415C536.276 76.2328 538.264 77.0785 540.864 77.0785C542.573 77.0785 544.047 76.6949 545.285 75.9277C546.541 75.1431 547.518 74.0272 548.216 72.58L553.58 74.28C552.481 76.8082 550.815 78.7697 548.582 80.1646C546.35 81.542 543.864 82.2308 541.125 82.2308ZM531.052 68.8662V64.6031H551.225V68.8662H531.052Z" fill="url(#paint12_linear_1035_442)"/>
<circle cx="65.3788" cy="65.1962" r="49.0341" fill="#F6F6F6"/>
<path d="M65.8979 48.1601L66.119 49.6924H69.1821L68.2959 45.5825H64.2004L61.6918 49.6924H65.0495L65.8979 48.1601ZM69.2185 56.3046L68.0747 50.8128H65.0116L65.2336 52.3443H63.0567L63.9421 50.8128H60.5844L57.263 56.3046H60.879L61.6539 54.8851H65.6396L65.8607 56.3046H69.2185ZM78.7387 55.6321C79.8082 55.1842 80.6202 54.5116 81.1739 53.6895C81.7276 52.8673 82.0222 51.9341 82.0222 50.8128H78.5176C78.5176 50.9248 78.5539 51 78.5539 51.1119C78.5539 51.8965 78.2956 52.4939 77.7427 52.9425C77.189 53.3904 76.4876 53.6151 75.6022 53.6151H74.2736L74.8273 50.8128H71.4325L70.3259 56.3046H74.975C76.4142 56.3046 77.6685 56.0807 78.7387 55.6321ZM76.2293 48.272H77.5934C78.2956 48.272 78.8122 48.4216 79.1439 48.6831C79.4022 48.9078 79.5862 49.2437 79.6234 49.6924H83.1288V49.6548C83.1288 48.3096 82.6865 47.3012 81.8374 46.591C80.9891 45.9184 79.734 45.5449 78.0365 45.5449H73.3874L72.5399 49.6924H75.8976L76.2293 48.272ZM88.2211 52.8673L89.9169 50.8128H84.0134L84.8254 52.7186L84.0869 56.3046H87.5189L88.2211 52.8673ZM91.0251 49.6924L94.4926 45.5825H90.8023L88.1089 48.9822L86.8175 45.5825H83.2757L85.1208 49.6924H91.0251ZM43.7587 47.9737C44.2381 47.9737 44.607 48.0481 44.7918 48.1601C45.013 48.272 45.0864 48.4968 45.0864 48.7951C45.0864 49.2437 44.8652 49.5428 44.4221 49.6924H48.1495C48.2601 49.3557 48.3336 48.9822 48.3336 48.5711C48.3336 47.637 48.0018 46.8901 47.3004 46.3671C46.599 45.844 45.6772 45.5825 44.4964 45.5825H39.4776L38.9973 47.9737H43.7587ZM59.293 45.5825H50.734L50.2174 48.0105H58.8143L59.293 45.5825ZM54.4961 50.0659L54.6067 49.5428H49.9947L49.8841 50.0659L49.5152 51.9332H54.1272L54.4961 50.0659ZM56.857 53.8766H48.1479L47.6693 56.3046H56.3768L56.857 53.8766ZM52.2087 67.4378H47.4118L47.9655 64.7107H44.5335L43.4269 70.2025H51.655L52.2087 67.4378ZM45.6401 63.5895H49.0713L49.8833 59.4804H46.4884L45.6401 63.5895ZM57.154 68.783H61.101L61.3593 70.2025H64.717L63.537 64.7107H60.511L60.7321 66.2422H58.5553L59.4044 64.7107H56.083L52.7624 70.2025H56.3784L57.154 68.783ZM59.6982 59.4804L57.1888 63.5895H60.5102L61.3585 62.058L61.6168 63.5895H64.6427L63.7936 59.4804H59.6982ZM67.337 66.6157L66.5993 70.2025H70.0313L70.7319 66.7653L72.4293 64.7107H66.4887L67.337 66.6157ZM73.3147 59.4804L70.6205 62.8801L69.329 59.4804H65.7873L67.5953 63.5895H73.5359L77.0042 59.4804H73.3147ZM39.8109 61.7221C40.2912 61.7221 40.66 61.7965 40.844 61.9084C41.0652 62.0204 41.1395 62.2075 41.1395 62.5066C41.1395 63.216 40.6229 63.5527 39.5526 63.5895H44.2018C44.3866 63.1792 44.4601 62.693 44.4601 62.1699C44.4601 61.1991 44.1283 60.4513 43.5012 59.9659C42.8369 59.4804 41.8772 59.2189 40.5858 59.2189H35.826L35.3094 61.7221H39.8109ZM43.1315 64.7107H33.8332L32.6895 70.2025H35.9737L36.6009 67.2507H38.04C39.7003 67.2507 40.9918 66.9148 41.9506 66.2046C42.4718 65.8254 42.8803 65.3087 43.1315 64.7107ZM40.2161 53.1665H41.8393L43.0936 56.3422H46.7096L45.0122 52.6434C45.7136 52.3443 46.2673 51.9332 46.6361 51.4102C46.7838 51.2239 46.8944 51 46.9679 50.7752H37.4855L36.3781 56.3046H39.5518L40.2161 53.1665ZM86.782 59.518H78.185L77.7056 61.9452H86.2654L86.782 59.518ZM76.9671 66.0183H81.5799L82.0222 63.6271H77.4102L76.9671 66.0183ZM75.1591 70.2393H83.8673L84.3468 67.8113H75.6393L75.1591 70.2393ZM96.7446 60.265C96.0431 59.7419 95.1214 59.4804 93.9405 59.4804H88.9217L88.4423 61.8716H93.202C93.6822 61.8716 94.0511 61.946 94.2351 62.058C94.4571 62.1699 94.5306 62.3947 94.5306 62.693C94.5306 63.1416 94.3094 63.4407 93.8663 63.5895H97.5929C97.714 63.2286 97.7764 62.8502 97.7777 62.469C97.7777 61.5349 97.4088 60.788 96.7446 60.265ZM96.0803 65.2713C96.2265 65.0808 96.3387 64.8659 96.412 64.6364H86.9297L85.8223 70.2017H88.996L89.6594 67.0268H91.2834L92.5377 70.2025H96.1537L94.4563 66.5037C95.1577 66.2046 95.7114 65.7944 96.0803 65.2713ZM56.1185 76.5533H64.6791L65.1956 74.0877H56.5987L56.1185 76.5533ZM60.4367 78.1976H55.8247L55.3444 80.588H59.9573L60.4367 78.1976ZM53.5744 84.8098H62.2455L62.7621 82.3818H54.0538L53.5744 84.8098ZM41.8029 78.1976H47.3004L46.3415 74.0877H42.6512L41.8029 78.1976ZM55.1975 74.0877H51.2869L48.6669 78.1976H54.3863L55.1975 74.0877ZM46.5635 80.9247L46.1946 79.318H40.6963L39.5906 84.8098H42.6529L43.6126 80.1769L44.6078 84.8098H47.0801L49.9947 80.0649L49.0358 84.8098H52.1715L53.2789 79.318H47.5595L46.5635 80.9247Z" fill="black"/>
<defs>
<linearGradient id="paint0_linear_1035_442" x1="125.028" y1="81.4454" x2="578.636" y2="81.4453" gradientUnits="userSpaceOnUse">
<stop stop-color="#78E2F2"/>
<stop offset="0.307292" stop-color="#AFB8EE"/>
<stop offset="0.541667" stop-color="#FE7CE8"/>
<stop offset="0.776042" stop-color="#FF6D7F"/>
<stop offset="1" stop-color="#FF9742"/>
</linearGradient>
<linearGradient id="paint1_linear_1035_442" x1="125.028" y1="81.4454" x2="578.636" y2="81.4453" gradientUnits="userSpaceOnUse">
<stop stop-color="#78E2F2"/>
<stop offset="0.307292" stop-color="#AFB8EE"/>
<stop offset="0.541667" stop-color="#FE7CE8"/>
<stop offset="0.776042" stop-color="#FF6D7F"/>
<stop offset="1" stop-color="#FF9742"/>
</linearGradient>
<linearGradient id="paint2_linear_1035_442" x1="125.028" y1="81.4454" x2="578.636" y2="81.4453" gradientUnits="userSpaceOnUse">
<stop stop-color="#78E2F2"/>
<stop offset="0.307292" stop-color="#AFB8EE"/>
<stop offset="0.541667" stop-color="#FE7CE8"/>
<stop offset="0.776042" stop-color="#FF6D7F"/>
<stop offset="1" stop-color="#FF9742"/>
</linearGradient>
<linearGradient id="paint3_linear_1035_442" x1="125.028" y1="81.4454" x2="578.636" y2="81.4453" gradientUnits="userSpaceOnUse">
<stop stop-color="#78E2F2"/>
<stop offset="0.307292" stop-color="#AFB8EE"/>
<stop offset="0.541667" stop-color="#FE7CE8"/>
<stop offset="0.776042" stop-color="#FF6D7F"/>
<stop offset="1" stop-color="#FF9742"/>
</linearGradient>
<linearGradient id="paint4_linear_1035_442" x1="125.028" y1="81.4454" x2="578.636" y2="81.4453" gradientUnits="userSpaceOnUse">
<stop stop-color="#78E2F2"/>
<stop offset="0.307292" stop-color="#AFB8EE"/>
<stop offset="0.541667" stop-color="#FE7CE8"/>
<stop offset="0.776042" stop-color="#FF6D7F"/>
<stop offset="1" stop-color="#FF9742"/>
</linearGradient>
<linearGradient id="paint5_linear_1035_442" x1="125.028" y1="81.4454" x2="578.636" y2="81.4453" gradientUnits="userSpaceOnUse">
<stop stop-color="#78E2F2"/>
<stop offset="0.307292" stop-color="#AFB8EE"/>
<stop offset="0.541667" stop-color="#FE7CE8"/>
<stop offset="0.776042" stop-color="#FF6D7F"/>
<stop offset="1" stop-color="#FF9742"/>
</linearGradient>
<linearGradient id="paint6_linear_1035_442" x1="125.028" y1="81.4454" x2="578.636" y2="81.4453" gradientUnits="userSpaceOnUse">
<stop stop-color="#78E2F2"/>
<stop offset="0.307292" stop-color="#AFB8EE"/>
<stop offset="0.541667" stop-color="#FE7CE8"/>
<stop offset="0.776042" stop-color="#FF6D7F"/>
<stop offset="1" stop-color="#FF9742"/>
</linearGradient>
<linearGradient id="paint7_linear_1035_442" x1="125.028" y1="81.4454" x2="578.636" y2="81.4453" gradientUnits="userSpaceOnUse">
<stop stop-color="#78E2F2"/>
<stop offset="0.307292" stop-color="#AFB8EE"/>
<stop offset="0.541667" stop-color="#FE7CE8"/>
<stop offset="0.776042" stop-color="#FF6D7F"/>
<stop offset="1" stop-color="#FF9742"/>
</linearGradient>
<linearGradient id="paint8_linear_1035_442" x1="125.028" y1="81.4454" x2="578.636" y2="81.4453" gradientUnits="userSpaceOnUse">
<stop stop-color="#78E2F2"/>
<stop offset="0.307292" stop-color="#AFB8EE"/>
<stop offset="0.541667" stop-color="#FE7CE8"/>
<stop offset="0.776042" stop-color="#FF6D7F"/>
<stop offset="1" stop-color="#FF9742"/>
</linearGradient>
<linearGradient id="paint9_linear_1035_442" x1="125.028" y1="81.4454" x2="578.636" y2="81.4453" gradientUnits="userSpaceOnUse">
<stop stop-color="#78E2F2"/>
<stop offset="0.307292" stop-color="#AFB8EE"/>
<stop offset="0.541667" stop-color="#FE7CE8"/>
<stop offset="0.776042" stop-color="#FF6D7F"/>
<stop offset="1" stop-color="#FF9742"/>
</linearGradient>
<linearGradient id="paint10_linear_1035_442" x1="125.028" y1="81.4454" x2="578.636" y2="81.4453" gradientUnits="userSpaceOnUse">
<stop stop-color="#78E2F2"/>
<stop offset="0.307292" stop-color="#AFB8EE"/>
<stop offset="0.541667" stop-color="#FE7CE8"/>
<stop offset="0.776042" stop-color="#FF6D7F"/>
<stop offset="1" stop-color="#FF9742"/>
</linearGradient>
<linearGradient id="paint11_linear_1035_442" x1="125.028" y1="81.4454" x2="578.636" y2="81.4453" gradientUnits="userSpaceOnUse">
<stop stop-color="#78E2F2"/>
<stop offset="0.307292" stop-color="#AFB8EE"/>
<stop offset="0.541667" stop-color="#FE7CE8"/>
<stop offset="0.776042" stop-color="#FF6D7F"/>
<stop offset="1" stop-color="#FF9742"/>
</linearGradient>
<linearGradient id="paint12_linear_1035_442" x1="125.028" y1="81.4454" x2="578.636" y2="81.4453" gradientUnits="userSpaceOnUse">
<stop stop-color="#78E2F2"/>
<stop offset="0.307292" stop-color="#AFB8EE"/>
<stop offset="0.541667" stop-color="#FE7CE8"/>
<stop offset="0.776042" stop-color="#FF6D7F"/>
<stop offset="1" stop-color="#FF9742"/>
</linearGradient>
</defs>
</svg>
