<svg width="524" height="131" viewBox="0 0 524 131" fill="none" xmlns="http://www.w3.org/2000/svg">
<rect width="523.031" height="130.758" rx="65.3788" fill="white"/>
<rect x="0.5" y="0.5" width="522.031" height="129.758" rx="64.8788" stroke="black" stroke-opacity="0.1"/>
<mask id="mask0_1035_391" style="mask-type:alpha" maskUnits="userSpaceOnUse" x="16" y="16" width="99" height="99">
<circle cx="65.3779" cy="65.3759" r="49.0341" fill="#D9D9D9"/>
</mask>
<g mask="url(#mask0_1035_391)">
<path d="M16.3438 89.4664V89.4708C16.4025 91.6478 16.4206 93.8373 16.7881 96.001C17.1775 98.29 17.7342 100.522 18.7963 102.599C20.2321 105.411 22.204 107.786 24.6932 109.726C26.4803 111.118 28.4326 112.224 30.5937 112.922C33.745 113.937 36.996 114.327 40.2945 114.346C42.3524 114.359 44.409 114.41 46.4677 114.401C61.4184 114.339 76.3694 114.509 91.3204 114.309C93.3043 114.282 95.2558 114.041 97.203 113.685C100.935 113.002 104.233 111.411 107.055 108.895C110.344 105.964 112.563 102.377 113.564 98.048C114.22 95.2181 114.384 92.3472 114.412 89.4661V88.8913C114.412 88.6684 114.327 39.9379 114.319 39.2938C114.297 37.5245 114.167 35.7685 113.835 34.0275C113.431 31.906 112.861 29.8388 111.844 27.9195C110.771 25.8917 109.426 24.0684 107.763 22.4752C105.215 20.0341 102.275 18.3078 98.8524 17.3946C95.761 16.5701 92.6073 16.3875 89.4304 16.3904C89.4253 16.3896 89.4133 16.3574 89.4125 16.3418H41.3279C41.327 16.3582 41.3264 16.3746 41.3253 16.3904C39.5223 16.4234 37.7167 16.4098 35.9229 16.632C33.9578 16.8761 32.0116 17.2437 30.1516 17.9301C27.222 19.0129 24.6766 20.6993 22.5023 22.9508C20.0389 25.5016 18.3025 28.4517 17.3812 31.8869C16.5593 34.9519 16.3804 38.0779 16.376 41.2259" fill="#FFFC00"/>
<path d="M65.8301 98.0657C65.6263 98.0657 65.4318 98.0581 65.2839 98.051C65.1665 98.0612 65.0453 98.0657 64.9239 98.0657C60.6419 98.0657 57.7788 96.0075 55.2521 94.1901C53.4412 92.8894 51.7333 91.6614 49.7324 91.323C48.7498 91.1573 47.7722 91.0733 46.8277 91.0733C45.1259 91.0733 43.781 91.3417 42.7991 91.5369C42.1949 91.6566 41.6739 91.7596 41.2712 91.7596C40.8494 91.7596 40.337 91.6646 40.1234 90.9231C39.9542 90.3383 39.8328 89.7716 39.7156 89.226C39.4225 87.8624 39.2098 87.0302 38.7077 86.9512C33.3371 86.1087 30.1639 84.8675 29.5318 83.3645C29.4655 83.2065 29.4285 83.0476 29.4203 82.8904C29.3957 82.4424 29.7068 82.0494 30.1411 81.9763C34.4062 81.2622 38.1985 78.9701 41.4134 75.1616C43.9038 72.2131 45.1267 69.3959 45.258 69.0849C45.2637 69.0709 45.2704 69.0562 45.2773 69.0428C45.897 67.7644 46.0203 66.6597 45.6449 65.7603C44.9528 64.101 42.661 63.3617 41.1447 62.8725C40.7676 62.7512 40.4109 62.6364 40.1267 62.5217C38.7825 61.9819 36.572 60.8413 36.8664 59.267C37.0809 58.119 38.5743 57.3195 39.7812 57.3195C40.1164 57.3195 40.4133 57.3793 40.6633 57.4986C42.0271 58.1483 43.2541 58.4776 44.3093 58.4776C45.6216 58.4776 46.2554 57.9696 46.4086 57.8252C46.3708 57.1135 46.3247 56.3609 46.28 55.6492C46.28 55.6484 46.279 55.6399 46.279 55.6399C45.971 50.6578 45.5868 44.4576 47.1466 40.9021C51.8152 30.2593 61.7158 29.4317 64.638 29.4317C64.7159 29.4317 65.9118 29.4197 65.9118 29.4197C65.9658 29.4187 66.0244 29.418 66.085 29.418C69.0153 29.418 78.9366 30.2465 83.6079 40.8957C85.1677 44.4536 84.7832 50.6589 84.4742 55.6463L84.4597 55.885C84.4173 56.5622 84.3782 57.2031 84.3452 57.8244C84.4895 57.9595 85.0695 58.4252 86.2495 58.4724C87.2554 58.4332 88.4114 58.1054 89.6843 57.4994C90.0779 57.3116 90.5136 57.2726 90.8094 57.2726C91.2565 57.2726 91.7115 57.3611 92.0907 57.5219L92.111 57.5299C93.1912 57.9197 93.8986 58.6988 93.9139 59.5173C93.9275 60.2803 93.3698 61.4207 90.6269 62.5221C90.346 62.6352 89.9876 62.7509 89.609 62.8729C88.0913 63.3627 85.8013 64.1016 85.1093 65.7599C84.7334 66.6593 84.857 67.7636 85.4769 69.0416C85.4838 69.0556 85.4897 69.0697 85.4964 69.0845C85.6872 69.5393 90.3067 80.2489 100.613 81.9753C101.047 82.0488 101.359 82.4422 101.334 82.8894C101.325 83.0501 101.287 83.2108 101.22 83.3678C100.592 84.8625 97.4194 86.1019 92.0472 86.9456C91.543 87.0247 91.3306 87.8533 91.0401 89.2097C90.9199 89.7699 90.7976 90.319 90.6306 90.8961C90.4743 91.4389 90.1265 91.7041 89.5681 91.7041H89.484C89.1204 91.7041 88.6053 91.637 87.9556 91.5078C86.8201 91.2831 85.5466 91.0739 83.927 91.0739C82.9827 91.0739 82.0054 91.1581 81.0216 91.3236C79.0228 91.662 77.3151 92.888 75.5074 94.1873C72.9758 96.0073 70.1117 98.0657 65.8301 98.0657Z" fill="white"/>
<path d="M66.0688 31.2095C68.7628 31.2095 78.0399 31.9792 82.4117 42.4036C83.8512 45.8362 83.4822 52.0542 83.1863 57.0493C83.14 57.842 83.0942 58.6103 83.0569 59.3439L83.0413 59.6593L83.2392 59.8942C83.3191 59.9885 84.0674 60.8203 85.7318 60.8886L85.7586 60.8902L85.7866 60.8896C86.8869 60.845 88.1263 60.4815 89.4723 59.8109C89.6706 59.7122 89.9345 59.664 90.2137 59.664C90.5319 59.664 90.87 59.7277 91.1488 59.8525L91.1909 59.8704C91.8967 60.1334 92.3956 60.6294 92.4033 61.0781C92.4074 61.3319 92.229 62.2459 89.7271 63.2971C89.4826 63.3997 89.1607 63.509 88.7876 63.634C87.1594 64.1839 84.6996 65.0137 83.8717 67.0885C83.4056 68.2572 83.5333 69.6364 84.2508 71.1873C84.5461 71.9202 89.1935 83.0539 99.6512 84.8867C99.6492 84.9394 99.6365 84.9971 99.6086 85.0651C99.4313 85.5091 98.3047 87.0432 91.294 88.1937C90.197 88.3725 89.9282 89.6803 89.6166 91.2007C89.504 91.745 89.3896 92.2945 89.2323 92.862C89.1842 93.0335 89.1753 93.0432 89.0025 93.0432C88.9786 93.0432 88.9507 93.0432 88.9201 93.0432C88.6092 93.0432 88.1373 92.9746 87.5903 92.8604C86.5941 92.6541 85.2332 92.401 83.4934 92.401C82.5224 92.401 81.5221 92.4907 80.5185 92.6689C78.3731 93.0483 76.6284 94.3608 74.7807 95.7499C72.2993 97.6148 69.7346 99.5445 65.8215 99.5445C65.6505 99.5445 65.4837 99.5384 65.3166 99.5294L65.2726 99.5275L65.2284 99.531C65.1324 99.54 65.0357 99.5445 64.9369 99.5445C61.0243 99.5445 58.4585 97.6154 55.9782 95.7499C54.1301 94.3608 52.3845 93.0483 50.2395 92.6689C49.2368 92.4913 48.2356 92.401 47.2651 92.401C45.5257 92.401 44.1631 92.684 43.169 92.8908C42.622 93.0045 42.1484 93.1021 41.8384 93.1021C41.5846 93.1021 41.5798 93.0862 41.5261 92.8912C41.3688 92.3232 41.2538 91.7607 41.1418 91.2172C40.8294 89.6952 40.5605 88.3802 39.464 88.2012C32.4539 87.0497 31.327 85.5131 31.1492 85.0703C31.1215 85.0005 31.109 84.941 31.1062 84.8883C41.5637 83.0571 46.2103 71.9229 46.5064 71.1873C47.2253 69.6376 47.3527 68.2586 46.8851 67.0885C46.0572 65.0149 43.5978 64.1839 41.9708 63.635C41.5967 63.5092 41.2747 63.3997 41.0299 63.2971C38.9172 62.4092 38.2673 61.5148 38.3638 60.9729C38.4759 60.3479 39.4946 59.7124 40.3836 59.7124C40.5834 59.7124 40.7586 59.7467 40.8881 59.8111C42.332 60.5309 43.65 60.8958 44.8061 60.8958C46.6235 60.8958 47.4323 59.9964 47.5192 59.8938L47.7162 59.6595L47.7003 59.3457C47.6636 58.6125 47.6183 57.8443 47.5706 57.0532C47.2756 52.057 46.9066 45.8431 48.3456 42.4103C52.7012 32.0242 61.9329 31.2236 64.6581 31.2236C64.7252 31.2236 65.91 31.2107 65.91 31.2107C65.9584 31.2103 66.0123 31.2095 66.0688 31.2095ZM66.0688 29.418H66.0656C66.0035 29.418 65.9452 29.418 65.8897 29.4188C65.4468 29.4235 64.7189 29.4311 64.6534 29.4318C63.0569 29.4318 59.8626 29.6717 56.4315 31.2825C54.4697 32.2028 52.7051 33.4472 51.1869 34.9813C49.3768 36.8091 47.9022 39.0627 46.8048 41.6804C45.1977 45.5133 45.5792 51.9692 45.8856 57.1573L45.8867 57.1654C45.9195 57.721 45.954 58.3012 45.9855 58.8666C45.7497 58.9817 45.3675 59.1033 44.804 59.1033C43.8975 59.1033 42.8195 58.795 41.6008 58.1877C41.2422 58.0101 40.8329 57.9203 40.3814 57.9203C39.6558 57.9203 38.8909 58.1474 38.2274 58.5623C37.3926 59.0836 36.8533 59.8204 36.7068 60.6373C36.6102 61.1777 36.6149 62.2457 37.7304 63.3288C38.3439 63.925 39.2452 64.4749 40.4086 64.9639C40.7139 65.0918 41.0762 65.2139 41.4599 65.3433C42.7916 65.7935 44.807 66.4736 45.3326 67.7892C45.5989 68.4562 45.4843 69.3339 44.9928 70.3948C44.98 70.4238 44.9671 70.4521 44.9554 70.4818C44.8326 70.7869 43.6867 73.5474 41.3363 76.4587C40.0008 78.1142 38.5297 79.4978 36.9664 80.5722C35.0583 81.8838 32.9936 82.7413 30.8304 83.1203C29.9808 83.2686 29.3742 84.0736 29.4215 84.9884C29.4361 85.252 29.4942 85.5149 29.5951 85.7692C29.5958 85.7708 29.5967 85.7724 29.5975 85.7738C29.941 86.6283 30.7373 87.3542 32.0321 87.9945C33.6142 88.776 35.9805 89.4336 39.0644 89.9479C39.2202 90.2631 39.382 91.0552 39.494 91.5976C39.6113 92.174 39.7335 92.7667 39.9078 93.3962C40.0958 94.0783 40.5836 94.8934 41.8366 94.8934C42.3115 94.8934 42.8575 94.7796 43.4899 94.6492C44.416 94.4559 45.6824 94.1923 47.2631 94.1923C48.1394 94.1923 49.0476 94.2744 49.9618 94.4359C51.724 94.7479 53.2431 95.8893 55.0009 97.211C57.5736 99.1453 60.4857 101.335 64.935 101.335C65.0564 101.335 65.1781 101.33 65.2983 101.322C65.4453 101.329 65.6276 101.335 65.82 101.335C70.2706 101.335 73.182 99.1445 75.7519 97.2118L75.756 97.2079C77.5141 95.8877 79.0316 94.7479 80.7932 94.4359C81.707 94.2746 82.615 94.1923 83.4917 94.1923C85.0017 94.1923 86.1973 94.3971 87.2649 94.6185C87.9616 94.7644 88.503 94.8345 88.9184 94.8345L88.9591 94.8353H89.0012C89.9176 94.8353 90.591 94.3003 90.848 93.3641C91.0187 92.7478 91.1406 92.169 91.2608 91.5829C91.3655 91.0746 91.5329 90.2599 91.6887 89.9414C94.7747 89.426 97.14 88.7699 98.7224 87.9885C100.014 87.3512 100.81 86.6261 101.155 85.7752C101.259 85.52 101.319 85.2556 101.333 84.9864C101.382 84.0732 100.774 83.2666 99.9239 83.1184C90.3097 81.4331 85.9785 70.9265 85.7994 70.4801C85.7879 70.4507 85.7748 70.4216 85.7612 70.3932C85.2697 69.332 85.1562 68.4552 85.4228 67.787C85.9472 66.4726 87.9614 65.7925 89.294 65.3425C89.6798 65.2133 90.0434 65.0904 90.3463 64.9631C91.6581 64.4121 92.5958 63.8142 93.2144 63.1353C93.9532 62.326 94.0971 61.5505 94.0881 61.0431C94.0656 59.8153 93.1831 58.7242 91.7793 58.19C91.3052 57.9815 90.7645 57.8715 90.2139 57.8715C89.8391 57.8715 89.2841 57.9262 88.7587 58.1871C87.6339 58.7468 86.6264 59.0529 85.7614 59.0965C85.3014 59.0717 84.9788 58.9657 84.7699 58.8644C84.7962 58.3855 84.8252 57.8935 84.8553 57.3805L84.8677 57.1609C85.1758 51.9694 85.5586 45.5085 83.9508 41.6729C82.8487 39.0459 81.3689 36.7865 79.5516 34.9547C78.0274 33.4197 76.2568 32.1754 74.2879 31.2557C70.8616 29.6568 67.6675 29.418 66.0688 29.418Z" fill="#020202"/>
</g>
<path d="M167.684 82.5078C164.981 82.5078 162.54 82.0458 160.361 81.1218C158.199 80.1803 156.412 78.8466 155 77.1206C153.605 75.3771 152.699 73.3112 152.28 70.9227L157.981 70.0597C158.557 72.361 159.76 74.1567 161.59 75.4469C163.421 76.7196 165.557 77.3559 167.997 77.3559C169.514 77.3559 170.909 77.1206 172.182 76.6498C173.454 76.1617 174.474 75.473 175.241 74.5839C176.026 73.6773 176.418 72.5964 176.418 71.3411C176.418 70.6611 176.296 70.0597 176.052 69.5366C175.825 69.0136 175.503 68.5603 175.084 68.1767C174.683 67.7758 174.187 67.4358 173.594 67.1568C173.018 66.8605 172.382 66.6077 171.685 66.3984L162.035 63.5479C161.093 63.269 160.134 62.9116 159.158 62.4757C158.182 62.0224 157.284 61.4384 156.465 60.7236C155.663 59.9913 155.009 59.0934 154.503 58.03C153.998 56.949 153.745 55.6414 153.745 54.1072C153.745 51.7885 154.338 49.8271 155.523 48.2231C156.726 46.6017 158.347 45.3813 160.387 44.5619C162.427 43.7251 164.711 43.3066 167.239 43.3066C169.784 43.3415 172.06 43.7948 174.064 44.6665C176.087 45.5382 177.761 46.7935 179.086 48.4323C180.428 50.0537 181.352 52.0238 181.858 54.3426L176 55.3363C175.738 53.9242 175.18 52.7125 174.326 51.7013C173.472 50.6727 172.426 49.8881 171.188 49.3476C169.95 48.7897 168.608 48.5021 167.16 48.4846C165.766 48.4498 164.484 48.659 163.316 49.1123C162.166 49.5656 161.242 50.2019 160.544 51.0213C159.864 51.8408 159.524 52.7822 159.524 53.8457C159.524 54.8918 159.829 55.7373 160.44 56.3824C161.05 57.0275 161.799 57.5418 162.689 57.9253C163.595 58.2915 164.493 58.5966 165.382 58.8406L172.338 60.802C173.21 61.0461 174.195 61.3773 175.294 61.7958C176.409 62.1968 177.482 62.7634 178.51 63.4956C179.556 64.2279 180.419 65.2042 181.099 66.4246C181.779 67.6276 182.119 69.1444 182.119 70.975C182.119 72.8753 181.736 74.549 180.969 75.9961C180.201 77.4257 179.147 78.6286 177.804 79.605C176.479 80.5639 174.945 81.2874 173.201 81.7755C171.458 82.2637 169.619 82.5078 167.684 82.5078Z" fill="url(#paint0_linear_1035_391)"/>
<path d="M207.515 81.7232V67.8368C207.515 66.7384 207.419 65.6139 207.227 64.4632C207.053 63.2951 206.704 62.2142 206.181 61.2204C205.676 60.2267 204.952 59.4247 204.011 58.8145C203.087 58.2043 201.875 57.8992 200.376 57.8992C199.399 57.8992 198.475 58.0648 197.604 58.3961C196.732 58.7099 195.965 59.2242 195.302 59.939C194.657 60.6538 194.143 61.5953 193.759 62.7634C193.393 63.9315 193.21 65.3524 193.21 67.0261L189.811 65.7447C189.811 63.1818 190.29 60.9241 191.249 58.9714C192.208 57.0013 193.585 55.4671 195.381 54.3687C197.177 53.2704 199.347 52.7212 201.893 52.7212C203.845 52.7212 205.484 53.035 206.809 53.6626C208.134 54.2903 209.206 55.1184 210.026 56.147C210.863 57.1582 211.499 58.2653 211.935 59.4683C212.371 60.6713 212.667 61.8481 212.824 62.9987C212.981 64.1494 213.059 65.1606 213.059 66.0323V81.7232H207.515ZM187.666 81.7232V53.4796H192.556V61.6389H193.21V81.7232H187.666Z" fill="url(#paint1_linear_1035_391)"/>
<path d="M227.847 82.5078C225.755 82.5078 224.003 82.1242 222.591 81.3571C221.179 80.5726 220.106 79.5439 219.374 78.2712C218.659 76.9811 218.302 75.5689 218.302 74.0347C218.302 72.6051 218.555 71.3498 219.06 70.2689C219.566 69.1879 220.316 68.2726 221.309 67.523C222.303 66.7558 223.523 66.1369 224.97 65.6662C226.226 65.3001 227.647 64.9775 229.233 64.6986C230.82 64.4196 232.485 64.1581 234.228 63.914C235.989 63.67 237.732 63.4259 239.458 63.1818L237.471 64.2802C237.506 62.066 237.035 60.4272 236.059 59.3637C235.1 58.2828 233.444 57.7423 231.09 57.7423C229.608 57.7423 228.248 58.091 227.01 58.7883C225.772 59.4683 224.909 60.6015 224.421 62.188L219.322 60.619C220.019 58.1956 221.344 56.2691 223.297 54.8395C225.267 53.4099 227.882 52.695 231.142 52.695C233.67 52.695 235.867 53.1309 237.732 54.0026C239.615 54.8569 240.993 56.2168 241.864 58.0823C242.318 59.0063 242.597 59.9826 242.701 61.0112C242.806 62.0399 242.858 63.1469 242.858 64.3325V81.7232H238.02V75.2638L238.962 76.1007C237.793 78.2625 236.303 79.8752 234.49 80.9387C232.694 81.9848 230.48 82.5078 227.847 82.5078ZM228.815 78.0359C230.366 78.0359 231.7 77.7656 232.816 77.2252C233.932 76.6673 234.83 75.9612 235.51 75.1069C236.189 74.2526 236.634 73.3635 236.843 72.4394C237.14 71.6026 237.305 70.6611 237.34 69.6151C237.392 68.569 237.419 67.7322 237.419 67.1045L239.197 67.7583C237.471 68.0198 235.902 68.2552 234.49 68.4644C233.077 68.6736 231.796 68.8828 230.645 69.092C229.512 69.2838 228.501 69.5192 227.612 69.7981C226.862 70.0597 226.191 70.3735 225.598 70.7396C225.023 71.1057 224.561 71.5503 224.212 72.0733C223.881 72.5964 223.715 73.2327 223.715 73.9824C223.715 74.7146 223.898 75.3946 224.264 76.0222C224.631 76.6324 225.188 77.1206 225.938 77.4867C226.688 77.8528 227.647 78.0359 228.815 78.0359Z" fill="url(#paint2_linear_1035_391)"/>
<path d="M262.908 82.5078C260.205 82.5078 257.939 81.854 256.108 80.5464C254.278 79.2214 252.892 77.4344 251.95 75.1854C251.009 72.9363 250.538 70.3996 250.538 67.5753C250.538 64.7509 251 62.2142 251.924 59.9652C252.866 57.7161 254.243 55.9465 256.056 54.6564C257.887 53.3488 260.136 52.695 262.803 52.695C265.453 52.695 267.737 53.3488 269.655 54.6564C271.59 55.9465 273.081 57.7161 274.127 59.9652C275.173 62.1968 275.696 64.7335 275.696 67.5753C275.696 70.3996 275.173 72.945 274.127 75.2115C273.098 77.4605 271.625 79.2388 269.707 80.5464C267.807 81.854 265.54 82.5078 262.908 82.5078ZM249.623 94.276V53.4796H254.487V73.7993H255.115V94.276H249.623ZM262.149 77.5651C263.893 77.5651 265.331 77.1206 266.464 76.2314C267.615 75.3423 268.469 74.148 269.027 72.6487C269.603 71.1319 269.89 69.4407 269.89 67.5753C269.89 65.7272 269.603 64.0535 269.027 62.5542C268.469 61.0548 267.606 59.8606 266.438 58.9714C265.27 58.0823 263.779 57.6377 261.966 57.6377C260.258 57.6377 258.846 58.0561 257.73 58.893C256.631 59.7298 255.812 60.8979 255.272 62.3973C254.748 63.8966 254.487 65.6226 254.487 67.5753C254.487 69.5279 254.748 71.2539 255.272 72.7533C255.795 74.2526 256.623 75.4294 257.756 76.2837C258.889 77.138 260.354 77.5651 262.149 77.5651Z" fill="url(#paint3_linear_1035_391)"/>
<path d="M293.552 82.5078C290.658 82.5078 288.2 81.8627 286.177 80.5726C284.155 79.2824 282.603 77.5128 281.522 75.2638C280.459 73.0148 279.918 70.4606 279.901 67.6014C279.918 64.6899 280.476 62.1183 281.575 59.8867C282.673 57.6377 284.242 55.8768 286.282 54.6041C288.322 53.3314 290.771 52.695 293.631 52.695C296.716 52.695 299.349 53.4622 301.528 54.9964C303.725 56.5306 305.172 58.6314 305.869 61.2989L300.43 62.868C299.889 61.2815 299 60.0523 297.762 59.1806C296.542 58.2915 295.139 57.8469 293.552 57.8469C291.756 57.8469 290.283 58.274 289.132 59.1283C287.982 59.9652 287.127 61.1158 286.57 62.5803C286.012 64.0448 285.724 65.7185 285.707 67.6014C285.724 70.5129 286.387 72.8666 287.694 74.6623C289.019 76.4581 290.972 77.3559 293.552 77.3559C295.313 77.3559 296.734 76.9549 297.815 76.153C298.913 75.3335 299.75 74.1654 300.325 72.6487L305.869 73.9562C304.945 76.7109 303.42 78.8291 301.293 80.3111C299.166 81.7755 296.586 82.5078 293.552 82.5078Z" fill="url(#paint4_linear_1035_391)"/>
<path d="M331.02 81.7232V67.8368C331.02 66.7384 330.924 65.6139 330.732 64.4632C330.558 63.2951 330.209 62.2142 329.686 61.2204C329.181 60.2267 328.457 59.4247 327.516 58.8145C326.592 58.2043 325.38 57.8992 323.88 57.8992C322.904 57.8992 321.98 58.0648 321.108 58.3961C320.237 58.7099 319.47 59.2242 318.807 59.939C318.162 60.6538 317.648 61.5953 317.264 62.7634C316.898 63.9315 316.715 65.3524 316.715 67.0261L313.315 65.7447C313.315 63.1818 313.795 60.9241 314.754 58.9714C315.712 57.0013 317.09 55.4671 318.886 54.3687C320.681 53.2704 322.852 52.7212 325.397 52.7212C327.35 52.7212 328.989 53.035 330.314 53.6626C331.639 54.2903 332.711 55.1184 333.53 56.147C334.367 57.1582 335.004 58.2653 335.439 59.4683C335.875 60.6713 336.172 61.8481 336.329 62.9987C336.486 64.1494 336.564 65.1606 336.564 66.0323V81.7232H331.02ZM311.171 81.7232V44.065H316.061V64.3848H316.715V81.7232H311.171Z" fill="url(#paint5_linear_1035_391)"/>
<path d="M351.352 82.5078C349.26 82.5078 347.508 82.1242 346.095 81.3571C344.683 80.5726 343.611 79.5439 342.879 78.2712C342.164 76.9811 341.807 75.5689 341.807 74.0347C341.807 72.6051 342.059 71.3498 342.565 70.2689C343.071 69.1879 343.82 68.2726 344.814 67.523C345.808 66.7558 347.028 66.1369 348.475 65.6662C349.73 65.3001 351.151 64.9775 352.738 64.6986C354.324 64.4196 355.989 64.1581 357.733 63.914C359.494 63.67 361.237 63.4259 362.963 63.1818L360.976 64.2802C361.01 62.066 360.54 60.4272 359.563 59.3637C358.605 58.2828 356.948 57.7423 354.595 57.7423C353.113 57.7423 351.753 58.091 350.515 58.7883C349.277 59.4683 348.414 60.6015 347.926 62.188L342.826 60.619C343.524 58.1956 344.849 56.2691 346.801 54.8395C348.772 53.4099 351.387 52.695 354.647 52.695C357.175 52.695 359.372 53.1309 361.237 54.0026C363.12 54.8569 364.497 56.2168 365.369 58.0823C365.822 59.0063 366.101 59.9826 366.206 61.0112C366.31 62.0399 366.363 63.1469 366.363 64.3325V81.7232H361.525V75.2638L362.466 76.1007C361.298 78.2625 359.807 79.8752 357.994 80.9387C356.199 81.9848 353.984 82.5078 351.352 82.5078ZM352.319 78.0359C353.871 78.0359 355.205 77.7656 356.321 77.2252C357.436 76.6673 358.334 75.9612 359.014 75.1069C359.694 74.2526 360.139 73.3635 360.348 72.4394C360.644 71.6026 360.81 70.6611 360.845 69.6151C360.897 68.569 360.923 67.7322 360.923 67.1045L362.702 67.7583C360.976 68.0198 359.406 68.2552 357.994 68.4644C356.582 68.6736 355.301 68.8828 354.15 69.092C353.017 69.2838 352.006 69.5192 351.116 69.7981C350.367 70.0597 349.696 70.3735 349.103 70.7396C348.527 71.1057 348.065 71.5503 347.717 72.0733C347.386 72.5964 347.22 73.2327 347.22 73.9824C347.22 74.7146 347.403 75.3946 347.769 76.0222C348.135 76.6324 348.693 77.1206 349.443 77.4867C350.192 77.8528 351.151 78.0359 352.319 78.0359Z" fill="url(#paint6_linear_1035_391)"/>
<path d="M389.315 81.7232C387.537 82.0719 385.794 82.2201 384.085 82.1678C382.376 82.1155 380.851 81.7843 379.508 81.1741C378.166 80.5639 377.155 79.605 376.475 78.2974C375.865 77.1293 375.533 75.9438 375.481 74.7408C375.446 73.5204 375.429 72.1431 375.429 70.6088V45.6341H380.921V70.3473C380.921 71.4806 380.929 72.4656 380.947 73.3024C380.982 74.1393 381.165 74.8454 381.496 75.4207C382.124 76.5016 383.117 77.1206 384.477 77.2775C385.855 77.417 387.467 77.3559 389.315 77.0944V81.7232ZM370.015 57.873V53.4796H389.315V57.873H370.015Z" fill="url(#paint7_linear_1035_391)"/>
<path d="M403.126 81.7232L415.365 44.065H423.236L435.475 81.7232H429.8L418.529 47.3601H419.941L408.801 81.7232H403.126ZM409.481 73.224V68.0983H429.146V73.224H409.481Z" fill="url(#paint8_linear_1035_391)"/>
<path d="M440.167 81.7232V44.065H455.387C455.753 44.065 456.207 44.0825 456.747 44.1173C457.287 44.1348 457.802 44.1871 458.29 44.2742C460.382 44.6055 462.125 45.3203 463.52 46.4187C464.932 47.517 465.987 48.9031 466.685 50.5768C467.382 52.2505 467.731 54.0985 467.731 56.1209C467.731 59.1196 466.964 61.7086 465.429 63.8879C463.895 66.0498 461.594 67.4009 458.525 67.9414L456.302 68.2029H445.633V81.7232H440.167ZM462.186 81.7232L454.759 66.3984L460.277 64.9863L468.437 81.7232H462.186ZM445.633 63.0249H455.178C455.527 63.0249 455.91 63.0075 456.329 62.9726C456.764 62.9377 457.174 62.8767 457.558 62.7895C458.673 62.528 459.571 62.0486 460.251 61.3512C460.931 60.6364 461.419 59.817 461.716 58.893C462.012 57.9689 462.16 57.0449 462.16 56.1209C462.16 55.1969 462.012 54.2816 461.716 53.375C461.419 52.451 460.931 51.6403 460.251 50.9429C459.571 50.2281 458.673 49.7399 457.558 49.4784C457.174 49.3738 456.764 49.3041 456.329 49.2692C455.91 49.2343 455.527 49.2169 455.178 49.2169H445.633V63.0249Z" fill="url(#paint9_linear_1035_391)"/>
<defs>
<linearGradient id="paint0_linear_1035_391" x1="130.54" y1="81.7231" x2="485.983" y2="81.7231" gradientUnits="userSpaceOnUse">
<stop stop-color="#78E2F2"/>
<stop offset="0.307292" stop-color="#AFB8EE"/>
<stop offset="0.541667" stop-color="#FE7CE8"/>
<stop offset="0.776042" stop-color="#FF6D7F"/>
<stop offset="1" stop-color="#FF9742"/>
</linearGradient>
<linearGradient id="paint1_linear_1035_391" x1="130.54" y1="81.7231" x2="485.983" y2="81.7231" gradientUnits="userSpaceOnUse">
<stop stop-color="#78E2F2"/>
<stop offset="0.307292" stop-color="#AFB8EE"/>
<stop offset="0.541667" stop-color="#FE7CE8"/>
<stop offset="0.776042" stop-color="#FF6D7F"/>
<stop offset="1" stop-color="#FF9742"/>
</linearGradient>
<linearGradient id="paint2_linear_1035_391" x1="130.54" y1="81.7231" x2="485.983" y2="81.7231" gradientUnits="userSpaceOnUse">
<stop stop-color="#78E2F2"/>
<stop offset="0.307292" stop-color="#AFB8EE"/>
<stop offset="0.541667" stop-color="#FE7CE8"/>
<stop offset="0.776042" stop-color="#FF6D7F"/>
<stop offset="1" stop-color="#FF9742"/>
</linearGradient>
<linearGradient id="paint3_linear_1035_391" x1="130.54" y1="81.7231" x2="485.983" y2="81.7231" gradientUnits="userSpaceOnUse">
<stop stop-color="#78E2F2"/>
<stop offset="0.307292" stop-color="#AFB8EE"/>
<stop offset="0.541667" stop-color="#FE7CE8"/>
<stop offset="0.776042" stop-color="#FF6D7F"/>
<stop offset="1" stop-color="#FF9742"/>
</linearGradient>
<linearGradient id="paint4_linear_1035_391" x1="130.54" y1="81.7231" x2="485.983" y2="81.7231" gradientUnits="userSpaceOnUse">
<stop stop-color="#78E2F2"/>
<stop offset="0.307292" stop-color="#AFB8EE"/>
<stop offset="0.541667" stop-color="#FE7CE8"/>
<stop offset="0.776042" stop-color="#FF6D7F"/>
<stop offset="1" stop-color="#FF9742"/>
</linearGradient>
<linearGradient id="paint5_linear_1035_391" x1="130.54" y1="81.7231" x2="485.983" y2="81.7231" gradientUnits="userSpaceOnUse">
<stop stop-color="#78E2F2"/>
<stop offset="0.307292" stop-color="#AFB8EE"/>
<stop offset="0.541667" stop-color="#FE7CE8"/>
<stop offset="0.776042" stop-color="#FF6D7F"/>
<stop offset="1" stop-color="#FF9742"/>
</linearGradient>
<linearGradient id="paint6_linear_1035_391" x1="130.54" y1="81.7231" x2="485.983" y2="81.7231" gradientUnits="userSpaceOnUse">
<stop stop-color="#78E2F2"/>
<stop offset="0.307292" stop-color="#AFB8EE"/>
<stop offset="0.541667" stop-color="#FE7CE8"/>
<stop offset="0.776042" stop-color="#FF6D7F"/>
<stop offset="1" stop-color="#FF9742"/>
</linearGradient>
<linearGradient id="paint7_linear_1035_391" x1="130.54" y1="81.7231" x2="485.983" y2="81.7231" gradientUnits="userSpaceOnUse">
<stop stop-color="#78E2F2"/>
<stop offset="0.307292" stop-color="#AFB8EE"/>
<stop offset="0.541667" stop-color="#FE7CE8"/>
<stop offset="0.776042" stop-color="#FF6D7F"/>
<stop offset="1" stop-color="#FF9742"/>
</linearGradient>
<linearGradient id="paint8_linear_1035_391" x1="130.54" y1="81.7231" x2="485.983" y2="81.7231" gradientUnits="userSpaceOnUse">
<stop stop-color="#78E2F2"/>
<stop offset="0.307292" stop-color="#AFB8EE"/>
<stop offset="0.541667" stop-color="#FE7CE8"/>
<stop offset="0.776042" stop-color="#FF6D7F"/>
<stop offset="1" stop-color="#FF9742"/>
</linearGradient>
<linearGradient id="paint9_linear_1035_391" x1="130.54" y1="81.7231" x2="485.983" y2="81.7231" gradientUnits="userSpaceOnUse">
<stop stop-color="#78E2F2"/>
<stop offset="0.307292" stop-color="#AFB8EE"/>
<stop offset="0.541667" stop-color="#FE7CE8"/>
<stop offset="0.776042" stop-color="#FF6D7F"/>
<stop offset="1" stop-color="#FF9742"/>
</linearGradient>
</defs>
</svg>
