<svg width="442" height="131" viewBox="0 0 442 131" fill="none" xmlns="http://www.w3.org/2000/svg">
<rect width="442" height="131" rx="65.5" fill="white"/>
<rect x="0.5" y="0.5" width="441" height="130" rx="65" stroke="black" stroke-opacity="0.1"/>
<circle cx="65.3788" cy="65.3329" r="49.0341" fill="#F6F6F6"/>
<path d="M85.3232 47.7965C84.9095 47.5826 84.5068 47.3482 84.1165 47.0942C82.9817 46.3439 81.9412 45.4599 81.0174 44.4611C78.7062 41.8166 77.843 39.1338 77.525 37.2554H77.5378C77.2722 35.6963 77.382 34.6875 77.3986 34.6875H66.8716V75.3935C66.8716 75.94 66.8716 76.4801 66.8486 77.0139C66.8486 77.0803 66.8422 77.1416 66.8384 77.2131C66.8384 77.2425 66.8384 77.2731 66.832 77.3038C66.832 77.3114 66.832 77.3191 66.832 77.3267C66.7211 78.7873 66.2529 80.1981 65.4687 81.4353C64.6844 82.6724 63.6082 83.6978 62.3347 84.4214C61.0074 85.1765 59.5061 85.5726 57.9791 85.5706C53.0744 85.5706 49.0993 81.5713 49.0993 76.6321C49.0993 71.6929 53.0744 67.6936 57.9791 67.6936C58.9075 67.6927 59.8302 67.8388 60.713 68.1265L60.7257 57.4079C58.0459 57.0618 55.3235 57.2747 52.7301 58.0334C50.1367 58.7921 47.7287 60.08 45.658 61.8159C43.8435 63.3924 42.3181 65.2734 41.1504 67.3744C40.706 68.1405 39.0294 71.2192 38.8264 76.2158C38.6987 79.0519 39.5504 81.9901 39.9565 83.2044V83.23C40.2119 83.9451 41.2015 86.3853 42.8142 88.4424C44.1147 90.0925 45.6512 91.5421 47.3742 92.7444V92.7189L47.3997 92.7444C52.4959 96.2074 58.1463 95.9801 58.1463 95.9801C59.1245 95.9405 62.4011 95.9801 66.122 94.2167C70.2491 92.2617 72.5986 89.349 72.5986 89.349C74.0996 87.6087 75.2932 85.6253 76.1281 83.4841C77.0807 80.98 77.3986 77.9767 77.3986 76.7764V55.1809C77.5263 55.2576 79.2272 56.3825 79.2272 56.3825C79.2272 56.3825 81.6776 57.9532 85.5007 58.976C88.2436 59.7038 91.939 59.8571 91.939 59.8571V49.4067C90.6442 49.5471 88.015 49.1385 85.3232 47.7965Z" fill="black"/>
<path d="M162.589 82.2148V49.6799H150V44.5235H180.672V49.6799H168.082V82.2148H162.589Z" fill="url(#paint0_linear_1035_409)"/>
<path d="M185.403 49.3134V44H190.896V49.3134H185.403ZM185.403 82.2148V53.9463H190.896V82.2148H185.403Z" fill="url(#paint1_linear_1035_409)"/>
<path d="M198.763 82.2148L198.789 44.5235H204.361V67.557L215.505 53.9463H222.496L210.721 68.0805L223.705 82.2148H216.241L204.361 68.604V82.2148H198.763Z" fill="url(#paint2_linear_1035_409)"/>
<path d="M235.79 82.2148V49.6799H223.201V44.5235H253.873V49.6799H241.283V82.2148H235.79Z" fill="url(#paint3_linear_1035_409)"/>
<path d="M266.196 83C263.357 83 260.895 82.3631 258.81 81.0893C256.725 79.8154 255.113 78.0617 253.974 75.8282C252.853 73.5772 252.292 70.9859 252.292 68.0544C252.292 65.1054 252.871 62.5141 254.027 60.2805C255.183 58.0295 256.804 56.2846 258.889 55.0456C260.974 53.7893 263.41 53.1611 266.196 53.1611C269.034 53.1611 271.496 53.798 273.581 55.0718C275.666 56.3456 277.278 58.0993 278.417 60.3329C279.556 62.5664 280.125 65.1403 280.125 68.0544C280.125 71.0034 279.547 73.6034 278.391 75.8544C277.252 78.0879 275.64 79.8416 273.555 81.1154C271.47 82.3718 269.017 83 266.196 83ZM266.196 77.8436C268.912 77.8436 270.935 76.9362 272.267 75.1215C273.616 73.2893 274.291 70.9336 274.291 68.0544C274.291 65.1054 273.607 62.7497 272.241 60.9872C270.892 59.2074 268.877 58.3174 266.196 58.3174C264.356 58.3174 262.84 58.7362 261.649 59.5738C260.457 60.394 259.573 61.5369 258.994 63.0027C258.416 64.451 258.127 66.1349 258.127 68.0544C258.127 71.0208 258.81 73.394 260.177 75.1738C261.544 76.9537 263.55 77.8436 266.196 77.8436Z" fill="url(#paint4_linear_1035_409)"/>
<path d="M285.875 82.2148L285.901 44.5235H291.473V67.557L302.617 53.9463H309.608L297.833 68.0805L310.817 82.2148H303.353L291.473 68.604V82.2148H285.875Z" fill="url(#paint5_linear_1035_409)"/>
<path d="M321.362 82.2148L333.662 44.5235H341.573L353.873 82.2148H348.17L336.842 47.8215H338.262L327.065 82.2148H321.362ZM327.749 73.7081V68.5779H347.513V73.7081H327.749Z" fill="url(#paint6_linear_1035_409)"/>
<path d="M358.589 82.2148V44.5235H373.885C374.253 44.5235 374.709 44.5409 375.252 44.5758C375.795 44.5933 376.312 44.6456 376.802 44.7329C378.905 45.0644 380.657 45.7799 382.059 46.8792C383.478 47.9785 384.538 49.3658 385.239 51.0409C385.94 52.7161 386.29 54.5658 386.29 56.5899C386.29 59.5913 385.519 62.1826 383.978 64.3638C382.436 66.5275 380.123 67.8799 377.039 68.4208L374.805 68.6826H364.082V82.2148H358.589ZM380.718 82.2148L373.254 66.8765L378.8 65.4631L387 82.2148H380.718ZM364.082 63.5H373.675C374.025 63.5 374.411 63.4825 374.831 63.4477C375.269 63.4128 375.681 63.3517 376.066 63.2644C377.188 63.0027 378.09 62.5228 378.774 61.8248C379.457 61.1094 379.948 60.2893 380.245 59.3644C380.543 58.4396 380.692 57.5148 380.692 56.5899C380.692 55.6651 380.543 54.749 380.245 53.8416C379.948 52.9168 379.457 52.1054 378.774 51.4074C378.09 50.6919 377.188 50.2034 376.066 49.9416C375.681 49.8369 375.269 49.7671 374.831 49.7322C374.411 49.6973 374.025 49.6799 373.675 49.6799H364.082V63.5Z" fill="url(#paint7_linear_1035_409)"/>
<defs>
<linearGradient id="paint0_linear_1035_409" x1="134.627" y1="82.2138" x2="400.722" y2="82.2137" gradientUnits="userSpaceOnUse">
<stop stop-color="#78E2F2"/>
<stop offset="0.307292" stop-color="#AFB8EE"/>
<stop offset="0.541667" stop-color="#FE7CE8"/>
<stop offset="0.776042" stop-color="#FF6D7F"/>
<stop offset="1" stop-color="#FF9742"/>
</linearGradient>
<linearGradient id="paint1_linear_1035_409" x1="134.627" y1="82.2138" x2="400.722" y2="82.2137" gradientUnits="userSpaceOnUse">
<stop stop-color="#78E2F2"/>
<stop offset="0.307292" stop-color="#AFB8EE"/>
<stop offset="0.541667" stop-color="#FE7CE8"/>
<stop offset="0.776042" stop-color="#FF6D7F"/>
<stop offset="1" stop-color="#FF9742"/>
</linearGradient>
<linearGradient id="paint2_linear_1035_409" x1="134.627" y1="82.2138" x2="400.722" y2="82.2137" gradientUnits="userSpaceOnUse">
<stop stop-color="#78E2F2"/>
<stop offset="0.307292" stop-color="#AFB8EE"/>
<stop offset="0.541667" stop-color="#FE7CE8"/>
<stop offset="0.776042" stop-color="#FF6D7F"/>
<stop offset="1" stop-color="#FF9742"/>
</linearGradient>
<linearGradient id="paint3_linear_1035_409" x1="134.627" y1="82.2138" x2="400.722" y2="82.2137" gradientUnits="userSpaceOnUse">
<stop stop-color="#78E2F2"/>
<stop offset="0.307292" stop-color="#AFB8EE"/>
<stop offset="0.541667" stop-color="#FE7CE8"/>
<stop offset="0.776042" stop-color="#FF6D7F"/>
<stop offset="1" stop-color="#FF9742"/>
</linearGradient>
<linearGradient id="paint4_linear_1035_409" x1="134.627" y1="82.2138" x2="400.722" y2="82.2137" gradientUnits="userSpaceOnUse">
<stop stop-color="#78E2F2"/>
<stop offset="0.307292" stop-color="#AFB8EE"/>
<stop offset="0.541667" stop-color="#FE7CE8"/>
<stop offset="0.776042" stop-color="#FF6D7F"/>
<stop offset="1" stop-color="#FF9742"/>
</linearGradient>
<linearGradient id="paint5_linear_1035_409" x1="134.627" y1="82.2138" x2="400.722" y2="82.2137" gradientUnits="userSpaceOnUse">
<stop stop-color="#78E2F2"/>
<stop offset="0.307292" stop-color="#AFB8EE"/>
<stop offset="0.541667" stop-color="#FE7CE8"/>
<stop offset="0.776042" stop-color="#FF6D7F"/>
<stop offset="1" stop-color="#FF9742"/>
</linearGradient>
<linearGradient id="paint6_linear_1035_409" x1="134.627" y1="82.2138" x2="400.722" y2="82.2137" gradientUnits="userSpaceOnUse">
<stop stop-color="#78E2F2"/>
<stop offset="0.307292" stop-color="#AFB8EE"/>
<stop offset="0.541667" stop-color="#FE7CE8"/>
<stop offset="0.776042" stop-color="#FF6D7F"/>
<stop offset="1" stop-color="#FF9742"/>
</linearGradient>
<linearGradient id="paint7_linear_1035_409" x1="134.627" y1="82.2138" x2="400.722" y2="82.2137" gradientUnits="userSpaceOnUse">
<stop stop-color="#78E2F2"/>
<stop offset="0.307292" stop-color="#AFB8EE"/>
<stop offset="0.541667" stop-color="#FE7CE8"/>
<stop offset="0.776042" stop-color="#FF6D7F"/>
<stop offset="1" stop-color="#FF9742"/>
</linearGradient>
</defs>
</svg>
