<svg width="537" height="131" viewBox="0 0 537 131" fill="none" xmlns="http://www.w3.org/2000/svg">
<rect width="536.106" height="130.758" rx="65.3788" fill="white"/>
<rect x="0.5" y="0.5" width="535.106" height="129.758" rx="64.8788" stroke="black" stroke-opacity="0.1"/>
<circle cx="65.3779" cy="65.3798" r="49.0341" fill="#F6F6F6"/>
<path d="M37.1878 73.9978C37.1878 76.7438 37.7905 78.8521 38.5783 80.1276C39.6112 81.7982 41.1518 82.506 42.7224 82.506C44.7481 82.506 46.6013 82.0033 50.1726 77.0639C53.0337 73.105 56.4049 67.5479 58.6733 64.0641L62.5147 58.1619C65.1832 54.0629 68.2718 49.5062 71.8132 46.4175C74.7042 43.8966 77.8229 42.4961 80.9616 42.4961C86.231 42.4961 91.2504 45.5497 95.0918 51.2769C99.2959 57.5492 101.337 65.4496 101.337 73.6026C101.337 78.4494 100.381 82.0108 98.7557 84.8243C97.1851 87.5453 94.1239 90.2638 88.9745 90.2638V82.506C93.3837 82.506 94.4841 78.4544 94.4841 73.8177C94.4841 67.2103 92.9435 59.8775 89.5497 54.6381C87.1413 50.9217 84.0202 48.6509 80.5864 48.6509C76.8725 48.6509 73.8839 51.4519 70.5252 56.4463C68.7395 59.0998 66.9063 62.3335 64.8481 65.9823L62.5822 69.9963C58.0305 78.0668 56.8776 79.905 54.6018 82.9386C50.6128 88.2506 47.2065 90.2638 42.7224 90.2638C37.4029 90.2638 34.0391 87.9605 31.9559 84.4892C30.2552 81.6606 29.4199 77.9493 29.4199 73.7202L37.1878 73.9978Z" fill="#0081FB"/>
<path d="M35.5459 51.8246C39.1072 46.335 44.2466 42.4961 50.1413 42.4961C53.5551 42.4961 56.9488 43.5065 60.4927 46.4C64.3691 49.5637 68.5006 54.7732 73.6551 63.3588L75.5032 66.44C79.9649 73.8727 82.5033 77.6967 83.9889 79.4998C85.8996 81.8157 87.2376 82.506 88.9757 82.506C93.3849 82.506 94.4853 78.4544 94.4853 73.8177L101.338 73.6026C101.338 78.4494 100.382 82.0108 98.7569 84.8243C97.1863 87.5453 94.1252 90.2638 88.9757 90.2638C85.7746 90.2638 82.9385 89.5686 79.8023 86.61C77.3914 84.3391 74.5729 80.3051 72.4046 76.6788L65.9547 65.9048C62.7185 60.4978 59.7499 56.4663 58.0318 54.6406C56.1836 52.6774 53.8077 50.3065 50.0163 50.3065C46.9476 50.3065 44.3417 52.4598 42.1609 55.7535L35.5459 51.8246Z" fill="url(#paint0_linear_1035_400)"/>
<path d="M50.0151 50.3065C46.9464 50.3065 44.3405 52.4598 42.1597 55.7535C39.076 60.4077 37.1878 67.3403 37.1878 73.9978C37.1878 76.7438 37.7905 78.8521 38.5783 80.1276L31.9559 84.4892C30.2552 81.6606 29.4199 77.9493 29.4199 73.7202C29.4199 66.0298 31.5307 58.0144 35.5447 51.8246C39.106 46.335 44.2454 42.4961 50.1401 42.4961L50.0151 50.3065Z" fill="url(#paint1_linear_1035_400)"/>
<path d="M154.033 81.7242V44.066H158.976L172.627 72.3881L186.2 44.066H191.195V81.698H186.017V55.9388L173.856 81.7242H171.372L159.185 55.9388V81.7242H154.033Z" fill="url(#paint2_linear_1035_400)"/>
<path d="M211.048 82.5087C208.241 82.5087 205.774 81.8985 203.647 80.6781C201.538 79.4403 199.89 77.723 198.705 75.5263C197.536 73.3121 196.952 70.7493 196.952 67.8377C196.952 64.7519 197.528 62.0757 198.678 59.8092C199.846 57.5428 201.468 55.7906 203.543 54.5528C205.617 53.3149 208.032 52.696 210.787 52.696C213.663 52.696 216.113 53.3672 218.135 54.7097C220.157 56.0347 221.666 57.9263 222.659 60.3846C223.67 62.8428 224.071 65.763 223.862 69.1453H218.397V67.1578C218.362 63.8801 217.734 61.4568 216.514 59.8877C215.311 58.3186 213.471 57.534 210.996 57.534C208.259 57.534 206.201 58.397 204.824 60.123C203.447 61.849 202.758 64.3421 202.758 67.6024C202.758 70.7057 203.447 73.1116 204.824 74.8202C206.201 76.5113 208.189 77.3569 210.787 77.3569C212.495 77.3569 213.968 76.9733 215.206 76.2062C216.461 75.4217 217.438 74.3059 218.135 72.8588L223.496 74.5587C222.398 77.0867 220.733 79.048 218.501 80.4428C216.27 81.8201 213.785 82.5087 211.048 82.5087ZM200.98 69.1453V64.8826H221.143V69.1453H200.98Z" fill="url(#paint3_linear_1035_400)"/>
<path d="M245.891 81.7242C244.113 82.0729 242.37 82.2211 240.661 82.1688C238.952 82.1165 237.427 81.7852 236.084 81.175C234.742 80.5648 233.731 79.6059 233.051 78.2983C232.441 77.1302 232.109 75.9447 232.057 74.7417C232.022 73.5213 232.005 72.144 232.005 70.6098V45.6351H237.497V70.3483C237.497 71.4815 237.505 72.4666 237.523 73.3034C237.558 74.1403 237.741 74.8463 238.072 75.4217C238.7 76.5026 239.693 77.1215 241.053 77.2784C242.431 77.4179 244.043 77.3569 245.891 77.0954V81.7242ZM226.591 57.874V53.4805H245.891V57.874H226.591Z" fill="url(#paint4_linear_1035_400)"/>
<path d="M259.822 82.5087C257.73 82.5087 255.978 82.1252 254.566 81.3581C253.154 80.5735 252.081 79.5449 251.349 78.2722C250.634 76.9821 250.277 75.5699 250.277 74.0356C250.277 72.606 250.53 71.3508 251.035 70.2698C251.541 69.1889 252.291 68.2736 253.284 67.5239C254.278 66.7568 255.499 66.1379 256.946 65.6672C258.201 65.301 259.622 64.9785 261.208 64.6996C262.795 64.4206 264.46 64.1591 266.203 63.915C267.964 63.6709 269.708 63.4268 271.434 63.1828L269.446 64.2811C269.481 62.067 269.01 60.4281 268.034 59.3646C267.075 58.2837 265.419 57.7432 263.065 57.7432C261.583 57.7432 260.223 58.0919 258.985 58.7893C257.748 59.4692 256.885 60.6025 256.396 62.189L251.297 60.6199C251.994 58.1965 253.319 56.27 255.272 54.8404C257.242 53.4108 259.857 52.696 263.117 52.696C265.645 52.696 267.842 53.1319 269.708 54.0036C271.59 54.8579 272.968 56.2177 273.839 58.0832C274.293 59.0072 274.572 59.9836 274.676 61.0122C274.781 62.0408 274.833 63.1479 274.833 64.3334V81.7242H269.995V75.2648L270.937 76.1016C269.769 78.2635 268.278 79.8762 266.465 80.9397C264.669 81.9857 262.455 82.5087 259.822 82.5087ZM260.79 78.0368C262.342 78.0368 263.675 77.7666 264.791 77.2261C265.907 76.6682 266.805 75.9621 267.485 75.1079C268.165 74.2536 268.609 73.3644 268.818 72.4404C269.115 71.6036 269.28 70.6621 269.315 69.616C269.368 68.57 269.394 67.7331 269.394 67.1055L271.172 67.7593C269.446 68.0208 267.877 68.2562 266.465 68.4654C265.053 68.6746 263.771 68.8838 262.62 69.093C261.487 69.2848 260.476 69.5201 259.587 69.7991C258.837 70.0606 258.166 70.3744 257.573 70.7406C256.998 71.1067 256.536 71.5513 256.187 72.0743C255.856 72.5973 255.69 73.2337 255.69 73.9833C255.69 74.7156 255.873 75.3955 256.239 76.0232C256.606 76.6334 257.164 77.1215 257.913 77.4877C258.663 77.8538 259.622 78.0368 260.79 78.0368Z" fill="url(#paint5_linear_1035_400)"/>
<path d="M292.095 81.7242V44.066H297.561V60.3061H316.39V44.066H321.881V81.7242H316.39V65.4579H297.561V81.7242H292.095Z" fill="url(#paint6_linear_1035_400)"/>
<path d="M341.493 82.5087C338.669 82.5087 336.219 81.8724 334.144 80.5997C332.07 79.327 330.466 77.5748 329.333 75.3432C328.217 73.0942 327.659 70.5052 327.659 67.5762C327.659 64.6298 328.234 62.0408 329.385 59.8092C330.536 57.5602 332.148 55.8168 334.223 54.5789C336.298 53.3236 338.721 52.696 341.493 52.696C344.317 52.696 346.767 53.3324 348.842 54.6051C350.916 55.8778 352.52 57.6299 353.654 59.8615C354.787 62.0931 355.353 64.6647 355.353 67.5762C355.353 70.5226 354.778 73.1203 353.627 75.3694C352.494 77.601 350.89 79.3531 348.815 80.6258C346.741 81.8811 344.3 82.5087 341.493 82.5087ZM341.493 77.3569C344.195 77.3569 346.209 76.4503 347.534 74.6371C348.876 72.8065 349.548 70.4529 349.548 67.5762C349.548 64.6298 348.868 62.2762 347.508 60.5153C346.165 58.737 344.161 57.8479 341.493 57.8479C339.662 57.8479 338.154 58.2663 336.969 59.1031C335.783 59.9225 334.903 61.0645 334.328 62.529C333.752 63.976 333.465 65.6584 333.465 67.5762C333.465 70.5401 334.144 72.9111 335.504 74.6894C336.864 76.4677 338.86 77.3569 341.493 77.3569Z" fill="url(#paint7_linear_1035_400)"/>
<path d="M361.1 81.7242V53.4805H365.964V60.3322L365.284 59.4431C365.633 58.5365 366.086 57.7084 366.644 56.9587C367.202 56.1916 367.847 55.564 368.58 55.0758C369.294 54.5528 370.088 54.1518 370.959 53.8728C371.848 53.5764 372.755 53.4021 373.679 53.3498C374.603 53.2801 375.492 53.3236 376.347 53.4805V58.6062C375.422 58.3622 374.394 58.2924 373.261 58.397C372.145 58.5016 371.116 58.859 370.175 59.4692C369.286 60.0446 368.579 60.742 368.056 61.5614C367.551 62.3808 367.185 63.2961 366.958 64.3073C366.731 65.301 366.618 66.3558 366.618 67.4716V81.7242H361.1Z" fill="url(#paint8_linear_1035_400)"/>
<path d="M381.85 48.8517V43.543H387.315V48.8517H381.85ZM381.85 81.7242V53.4805H387.315V81.7242H381.85Z" fill="url(#paint9_linear_1035_400)"/>
<path d="M392.553 81.7242V80.8612L408.584 58.3709H394.018V53.4805H417.267V54.3697L401.262 76.8339H416.482V81.7242H392.553Z" fill="url(#paint10_linear_1035_400)"/>
<path d="M433.177 82.5087C430.352 82.5087 427.903 81.8724 425.828 80.5997C423.753 79.327 422.149 77.5748 421.016 75.3432C419.9 73.0942 419.342 70.5052 419.342 67.5762C419.342 64.6298 419.918 62.0408 421.068 59.8092C422.219 57.5602 423.832 55.8168 425.906 54.5789C427.981 53.3236 430.405 52.696 433.177 52.696C436.001 52.696 438.451 53.3324 440.525 54.6051C442.6 55.8778 444.204 57.6299 445.337 59.8615C446.47 62.0931 447.037 64.6647 447.037 67.5762C447.037 70.5226 446.462 73.1203 445.311 75.3694C444.178 77.601 442.574 79.3531 440.499 80.6258C438.424 81.8811 435.984 82.5087 433.177 82.5087ZM433.177 77.3569C435.879 77.3569 437.893 76.4503 439.218 74.6371C440.56 72.8065 441.231 70.4529 441.231 67.5762C441.231 64.6298 440.551 62.2762 439.191 60.5153C437.849 58.737 435.844 57.8479 433.177 57.8479C431.346 57.8479 429.838 58.2663 428.652 59.1031C427.467 59.9225 426.586 61.0645 426.011 62.529C425.436 63.976 425.148 65.6584 425.148 67.5762C425.148 70.5401 425.828 72.9111 427.188 74.6894C428.548 76.4677 430.544 77.3569 433.177 77.3569Z" fill="url(#paint11_linear_1035_400)"/>
<path d="M472.607 81.7242V67.8377C472.607 66.7394 472.511 65.6149 472.319 64.4642C472.145 63.2961 471.796 62.2152 471.273 61.2214C470.767 60.2276 470.044 59.4257 469.102 58.8155C468.178 58.2053 466.967 57.9002 465.467 57.9002C464.491 57.9002 463.567 58.0658 462.695 58.397C461.823 58.7109 461.056 59.2252 460.394 59.94C459.749 60.6548 459.234 61.5962 458.851 62.7643C458.485 63.9324 458.302 65.3533 458.302 67.027L454.902 65.7456C454.902 63.1828 455.381 60.925 456.34 58.9724C457.299 57.0023 458.677 55.4681 460.472 54.3697C462.268 53.2713 464.439 52.7222 466.984 52.7222C468.937 52.7222 470.576 53.036 471.901 53.6636C473.225 54.2912 474.298 55.1194 475.117 56.148C475.954 57.1592 476.59 58.2663 477.026 59.4692C477.462 60.6722 477.758 61.849 477.915 62.9997C478.072 64.1504 478.151 65.1616 478.151 66.0333V81.7242H472.607ZM452.758 81.7242V53.4805H457.648V61.6398H458.302V81.7242H452.758Z" fill="url(#paint12_linear_1035_400)"/>
<defs>
<linearGradient id="paint0_linear_1035_400" x1="44.6768" y1="71.757" x2="94.1952" y2="74.2579" gradientUnits="userSpaceOnUse">
<stop stop-color="#0064E1"/>
<stop offset="0.4" stop-color="#0064E1"/>
<stop offset="0.83" stop-color="#0073EE"/>
<stop offset="1" stop-color="#0082FB"/>
</linearGradient>
<linearGradient id="paint1_linear_1035_400" x1="40.6741" y1="77.259" x2="40.6741" y2="59.0022" gradientUnits="userSpaceOnUse">
<stop stop-color="#0082FB"/>
<stop offset="1" stop-color="#0064E0"/>
</linearGradient>
<linearGradient id="paint2_linear_1035_400" x1="129.731" y1="81.7232" x2="499.681" y2="81.7232" gradientUnits="userSpaceOnUse">
<stop stop-color="#78E2F2"/>
<stop offset="0.307292" stop-color="#AFB8EE"/>
<stop offset="0.541667" stop-color="#FE7CE8"/>
<stop offset="0.776042" stop-color="#FF6D7F"/>
<stop offset="1" stop-color="#FF9742"/>
</linearGradient>
<linearGradient id="paint3_linear_1035_400" x1="129.731" y1="81.7232" x2="499.681" y2="81.7232" gradientUnits="userSpaceOnUse">
<stop stop-color="#78E2F2"/>
<stop offset="0.307292" stop-color="#AFB8EE"/>
<stop offset="0.541667" stop-color="#FE7CE8"/>
<stop offset="0.776042" stop-color="#FF6D7F"/>
<stop offset="1" stop-color="#FF9742"/>
</linearGradient>
<linearGradient id="paint4_linear_1035_400" x1="129.731" y1="81.7232" x2="499.681" y2="81.7232" gradientUnits="userSpaceOnUse">
<stop stop-color="#78E2F2"/>
<stop offset="0.307292" stop-color="#AFB8EE"/>
<stop offset="0.541667" stop-color="#FE7CE8"/>
<stop offset="0.776042" stop-color="#FF6D7F"/>
<stop offset="1" stop-color="#FF9742"/>
</linearGradient>
<linearGradient id="paint5_linear_1035_400" x1="129.731" y1="81.7232" x2="499.681" y2="81.7232" gradientUnits="userSpaceOnUse">
<stop stop-color="#78E2F2"/>
<stop offset="0.307292" stop-color="#AFB8EE"/>
<stop offset="0.541667" stop-color="#FE7CE8"/>
<stop offset="0.776042" stop-color="#FF6D7F"/>
<stop offset="1" stop-color="#FF9742"/>
</linearGradient>
<linearGradient id="paint6_linear_1035_400" x1="129.731" y1="81.7232" x2="499.681" y2="81.7232" gradientUnits="userSpaceOnUse">
<stop stop-color="#78E2F2"/>
<stop offset="0.307292" stop-color="#AFB8EE"/>
<stop offset="0.541667" stop-color="#FE7CE8"/>
<stop offset="0.776042" stop-color="#FF6D7F"/>
<stop offset="1" stop-color="#FF9742"/>
</linearGradient>
<linearGradient id="paint7_linear_1035_400" x1="129.731" y1="81.7232" x2="499.681" y2="81.7232" gradientUnits="userSpaceOnUse">
<stop stop-color="#78E2F2"/>
<stop offset="0.307292" stop-color="#AFB8EE"/>
<stop offset="0.541667" stop-color="#FE7CE8"/>
<stop offset="0.776042" stop-color="#FF6D7F"/>
<stop offset="1" stop-color="#FF9742"/>
</linearGradient>
<linearGradient id="paint8_linear_1035_400" x1="129.731" y1="81.7232" x2="499.681" y2="81.7232" gradientUnits="userSpaceOnUse">
<stop stop-color="#78E2F2"/>
<stop offset="0.307292" stop-color="#AFB8EE"/>
<stop offset="0.541667" stop-color="#FE7CE8"/>
<stop offset="0.776042" stop-color="#FF6D7F"/>
<stop offset="1" stop-color="#FF9742"/>
</linearGradient>
<linearGradient id="paint9_linear_1035_400" x1="129.731" y1="81.7232" x2="499.681" y2="81.7232" gradientUnits="userSpaceOnUse">
<stop stop-color="#78E2F2"/>
<stop offset="0.307292" stop-color="#AFB8EE"/>
<stop offset="0.541667" stop-color="#FE7CE8"/>
<stop offset="0.776042" stop-color="#FF6D7F"/>
<stop offset="1" stop-color="#FF9742"/>
</linearGradient>
<linearGradient id="paint10_linear_1035_400" x1="129.731" y1="81.7232" x2="499.681" y2="81.7232" gradientUnits="userSpaceOnUse">
<stop stop-color="#78E2F2"/>
<stop offset="0.307292" stop-color="#AFB8EE"/>
<stop offset="0.541667" stop-color="#FE7CE8"/>
<stop offset="0.776042" stop-color="#FF6D7F"/>
<stop offset="1" stop-color="#FF9742"/>
</linearGradient>
<linearGradient id="paint11_linear_1035_400" x1="129.731" y1="81.7232" x2="499.681" y2="81.7232" gradientUnits="userSpaceOnUse">
<stop stop-color="#78E2F2"/>
<stop offset="0.307292" stop-color="#AFB8EE"/>
<stop offset="0.541667" stop-color="#FE7CE8"/>
<stop offset="0.776042" stop-color="#FF6D7F"/>
<stop offset="1" stop-color="#FF9742"/>
</linearGradient>
<linearGradient id="paint12_linear_1035_400" x1="129.731" y1="81.7232" x2="499.681" y2="81.7232" gradientUnits="userSpaceOnUse">
<stop stop-color="#78E2F2"/>
<stop offset="0.307292" stop-color="#AFB8EE"/>
<stop offset="0.541667" stop-color="#FE7CE8"/>
<stop offset="0.776042" stop-color="#FF6D7F"/>
<stop offset="1" stop-color="#FF9742"/>
</linearGradient>
</defs>
</svg>
