<svg width="422" height="131" viewBox="0 0 422 131" fill="none" xmlns="http://www.w3.org/2000/svg">
<rect width="421.693" height="130.758" rx="65.3788" fill="white"/>
<rect x="0.5" y="0.5" width="420.693" height="129.758" rx="64.8788" stroke="black" stroke-opacity="0.1"/>
<g clip-path="url(#clip0_1035_385)">
<path d="M65.3788 114.414C92.4596 114.414 114.413 92.4606 114.413 65.3798C114.413 38.299 92.4596 16.3457 65.3788 16.3457C38.298 16.3457 16.3447 38.299 16.3447 65.3798C16.3447 92.4606 38.298 114.414 65.3788 114.414Z" fill="url(#paint0_linear_1035_385)"/>
<path d="M48.9031 39.4891L43.6074 44.7848V65.7714L48.9031 71.0671H69.8897V81.6584H59.4945V76.3628H43.6074V86.9541L48.9031 92.2498H80.4811L85.7768 86.9541V65.7714L80.4811 60.4757H59.4945V49.8843H70.0858V55.18H85.9729V44.5887L80.6772 39.293H48.9031V39.4891Z" fill="white"/>
</g>
<path d="M167.684 82.5078C164.981 82.5078 162.54 82.0458 160.361 81.1218C158.199 80.1803 156.412 78.8466 155 77.1206C153.605 75.3771 152.699 73.3112 152.28 70.9227L157.981 70.0597C158.557 72.361 159.76 74.1567 161.59 75.4469C163.421 76.7196 165.557 77.3559 167.997 77.3559C169.514 77.3559 170.909 77.1206 172.182 76.6498C173.454 76.1617 174.474 75.473 175.241 74.5839C176.026 73.6773 176.418 72.5964 176.418 71.3411C176.418 70.6611 176.296 70.0597 176.052 69.5366C175.825 69.0136 175.503 68.5603 175.084 68.1767C174.683 67.7758 174.187 67.4358 173.594 67.1568C173.018 66.8605 172.382 66.6077 171.685 66.3984L162.035 63.5479C161.093 63.269 160.134 62.9116 159.158 62.4757C158.182 62.0224 157.284 61.4384 156.465 60.7236C155.663 59.9913 155.009 59.0934 154.503 58.03C153.998 56.949 153.745 55.6414 153.745 54.1072C153.745 51.7885 154.338 49.8271 155.523 48.2231C156.726 46.6017 158.347 45.3813 160.387 44.5619C162.427 43.7251 164.711 43.3066 167.239 43.3066C169.784 43.3415 172.06 43.7948 174.064 44.6665C176.087 45.5382 177.761 46.7935 179.086 48.4323C180.428 50.0537 181.352 52.0238 181.858 54.3426L176 55.3363C175.738 53.9242 175.18 52.7125 174.326 51.7013C173.472 50.6727 172.426 49.8881 171.188 49.3476C169.95 48.7897 168.608 48.5021 167.16 48.4846C165.766 48.4498 164.484 48.659 163.316 49.1123C162.166 49.5656 161.242 50.2019 160.544 51.0213C159.864 51.8408 159.524 52.7822 159.524 53.8457C159.524 54.8918 159.829 55.7373 160.44 56.3824C161.05 57.0275 161.799 57.5418 162.689 57.9253C163.595 58.2915 164.493 58.5966 165.382 58.8406L172.338 60.802C173.21 61.0461 174.195 61.3773 175.294 61.7958C176.409 62.1968 177.482 62.7634 178.51 63.4956C179.556 64.2279 180.419 65.2042 181.099 66.4246C181.779 67.6276 182.119 69.1444 182.119 70.975C182.119 72.8753 181.736 74.549 180.969 75.9961C180.201 77.4257 179.147 78.6286 177.804 79.605C176.479 80.5639 174.945 81.2874 173.201 81.7755C171.458 82.2637 169.619 82.5078 167.684 82.5078Z" fill="url(#paint1_linear_1035_385)"/>
<path d="M195.669 82.5078C193.576 82.5078 191.824 82.1242 190.412 81.3571C189 80.5726 187.928 79.5439 187.195 78.2712C186.481 76.9811 186.123 75.5689 186.123 74.0347C186.123 72.6051 186.376 71.3498 186.882 70.2689C187.387 69.1879 188.137 68.2726 189.131 67.523C190.124 66.7558 191.345 66.1369 192.792 65.6662C194.047 65.3001 195.468 64.9775 197.055 64.6986C198.641 64.4196 200.306 64.1581 202.049 63.914C203.81 63.67 205.554 63.4259 207.28 63.1818L205.292 64.2802C205.327 62.066 204.856 60.4272 203.88 59.3637C202.921 58.2828 201.265 57.7423 198.911 57.7423C197.429 57.7423 196.07 58.091 194.832 58.7883C193.594 59.4683 192.731 60.6015 192.243 62.188L187.143 60.619C187.84 58.1956 189.166 56.2691 191.118 54.8395C193.088 53.4099 195.703 52.695 198.964 52.695C201.492 52.695 203.688 53.1309 205.554 54.0026C207.437 54.8569 208.814 56.2168 209.686 58.0823C210.139 59.0063 210.418 59.9826 210.523 61.0112C210.627 62.0399 210.679 63.1469 210.679 64.3325V81.7232H205.841V75.2638L206.783 76.1007C205.615 78.2625 204.124 79.8752 202.311 80.9387C200.515 81.9848 198.301 82.5078 195.669 82.5078ZM196.636 78.0359C198.188 78.0359 199.522 77.7656 200.637 77.2252C201.753 76.6673 202.651 75.9612 203.331 75.1069C204.011 74.2526 204.455 73.3635 204.665 72.4394C204.961 71.6026 205.127 70.6611 205.162 69.6151C205.214 68.569 205.24 67.7322 205.24 67.1045L207.018 67.7583C205.292 68.0198 203.723 68.2552 202.311 68.4644C200.899 68.6736 199.617 68.8828 198.467 69.092C197.333 69.2838 196.322 69.5192 195.433 69.7981C194.683 70.0597 194.012 70.3735 193.419 70.7396C192.844 71.1057 192.382 71.5503 192.033 72.0733C191.702 72.5964 191.537 73.2327 191.537 73.9824C191.537 74.7146 191.72 75.3946 192.086 76.0222C192.452 76.6324 193.01 77.1206 193.759 77.4867C194.509 77.8528 195.468 78.0359 196.636 78.0359Z" fill="url(#paint2_linear_1035_385)"/>
<path d="M237.293 81.7232V67.8368C237.293 66.7384 237.197 65.6139 237.006 64.4632C236.831 63.2951 236.482 62.2142 235.959 61.2204C235.454 60.2267 234.73 59.4247 233.789 58.8145C232.865 58.2043 231.653 57.8992 230.154 57.8992C229.177 57.8992 228.253 58.0648 227.382 58.3961C226.51 58.7099 225.743 59.2242 225.08 59.939C224.435 60.6538 223.921 61.5953 223.537 62.7634C223.171 63.9315 222.988 65.3524 222.988 67.0261L219.589 65.7447C219.589 63.1818 220.068 60.9241 221.027 58.9714C221.986 57.0013 223.363 55.4671 225.159 54.3687C226.955 53.2704 229.125 52.7212 231.671 52.7212C233.623 52.7212 235.262 53.035 236.587 53.6626C237.912 54.2903 238.984 55.1184 239.804 56.147C240.641 57.1582 241.277 58.2653 241.713 59.4683C242.149 60.6713 242.445 61.8481 242.602 62.9987C242.759 64.1494 242.837 65.1606 242.837 66.0323V81.7232H237.293ZM217.444 81.7232V53.4796H222.334V61.6389H222.988V81.7232H217.444Z" fill="url(#paint3_linear_1035_385)"/>
<path d="M260.51 82.5078C257.878 82.5078 255.603 81.854 253.685 80.5464C251.785 79.2388 250.311 77.4605 249.265 75.2115C248.237 72.945 247.722 70.3996 247.722 67.5753C247.722 64.7335 248.245 62.1968 249.291 59.9652C250.337 57.7161 251.819 55.9465 253.737 54.6564C255.672 53.3488 257.965 52.695 260.615 52.695C263.282 52.695 265.523 53.3488 267.336 54.6564C269.167 55.9465 270.544 57.7161 271.468 59.9652C272.409 62.2142 272.88 64.7509 272.88 67.5753C272.88 70.3996 272.409 72.9363 271.468 75.1854C270.526 77.4344 269.14 79.2214 267.31 80.5464C265.479 81.854 263.213 82.5078 260.51 82.5078ZM261.269 77.5651C263.065 77.5651 264.529 77.138 265.662 76.2837C266.795 75.4294 267.624 74.2526 268.147 72.7533C268.67 71.2539 268.931 69.5279 268.931 67.5753C268.931 65.6226 268.661 63.8966 268.121 62.3973C267.597 60.8979 266.778 59.7298 265.662 58.893C264.564 58.0561 263.16 57.6377 261.452 57.6377C259.639 57.6377 258.148 58.0823 256.98 58.9714C255.812 59.8606 254.94 61.0548 254.365 62.5542C253.807 64.0535 253.528 65.7272 253.528 67.5753C253.528 69.4407 253.807 71.1319 254.365 72.6487C254.94 74.148 255.794 75.3423 256.928 76.2314C258.078 77.1206 259.525 77.5651 261.269 77.5651ZM268.931 81.7232V61.4035H268.304V44.065H273.795V81.7232H268.931Z" fill="url(#paint4_linear_1035_385)"/>
<path d="M294.371 82.5078C291.669 82.5078 289.403 81.854 287.572 80.5464C285.741 79.2214 284.355 77.4344 283.414 75.1854C282.472 72.9363 282.002 70.3996 282.002 67.5753C282.002 64.7509 282.464 62.2142 283.388 59.9652C284.329 57.7161 285.706 55.9465 287.52 54.6564C289.35 53.3488 291.599 52.695 294.267 52.695C296.917 52.695 299.201 53.3488 301.118 54.6564C303.054 55.9465 304.544 57.7161 305.59 59.9652C306.636 62.1968 307.159 64.7335 307.159 67.5753C307.159 70.3996 306.636 72.945 305.59 75.2115C304.562 77.4605 303.089 79.2388 301.171 80.5464C299.27 81.854 297.004 82.5078 294.371 82.5078ZM281.086 81.7232V44.065H286.578V61.4035H285.951V81.7232H281.086ZM293.613 77.5651C295.356 77.5651 296.795 77.1206 297.928 76.2314C299.079 75.3423 299.933 74.148 300.491 72.6487C301.066 71.1319 301.354 69.4407 301.354 67.5753C301.354 65.7272 301.066 64.0535 300.491 62.5542C299.933 61.0548 299.07 59.8606 297.902 58.9714C296.734 58.0823 295.243 57.6377 293.43 57.6377C291.721 57.6377 290.309 58.0561 289.193 58.893C288.095 59.7298 287.276 60.8979 286.735 62.3973C286.212 63.8966 285.951 65.6226 285.951 67.5753C285.951 69.5279 286.212 71.2539 286.735 72.7533C287.258 74.2526 288.086 75.4294 289.219 76.2837C290.353 77.138 291.817 77.5651 293.613 77.5651Z" fill="url(#paint5_linear_1035_385)"/>
<path d="M325.199 82.5078C322.374 82.5078 319.925 81.8714 317.85 80.5987C315.775 79.326 314.171 77.5739 313.038 75.3423C311.922 73.0932 311.365 70.5042 311.365 67.5753C311.365 64.6289 311.94 62.0399 313.09 59.8083C314.241 57.5592 315.854 55.8158 317.929 54.5779C320.003 53.3227 322.427 52.695 325.199 52.695C328.023 52.695 330.473 53.3314 332.547 54.6041C334.622 55.8768 336.226 57.629 337.359 59.8606C338.492 62.0922 339.059 64.6637 339.059 67.5753C339.059 70.5217 338.484 73.1194 337.333 75.3684C336.2 77.6 334.596 79.3522 332.521 80.6249C330.446 81.8801 328.006 82.5078 325.199 82.5078ZM325.199 77.3559C327.901 77.3559 329.915 76.4493 331.24 74.6362C332.582 72.8056 333.253 70.4519 333.253 67.5753C333.253 64.6289 332.573 62.2752 331.214 60.5143C329.871 58.736 327.866 57.8469 325.199 57.8469C323.368 57.8469 321.86 58.2653 320.674 59.1022C319.489 59.9216 318.608 61.0635 318.033 62.528C317.458 63.9751 317.17 65.6575 317.17 67.5753C317.17 70.5391 317.85 72.9102 319.21 74.6885C320.57 76.4668 322.566 77.3559 325.199 77.3559Z" fill="url(#paint6_linear_1035_385)"/>
<path d="M340.901 81.7232L351.467 67.4445L341.137 53.4796H347.622L354.657 63.1818L361.613 53.4796H368.099L357.769 67.4445L368.361 81.7232H361.849L354.657 71.7072L347.413 81.7232H340.901Z" fill="url(#paint7_linear_1035_385)"/>
<defs>
<linearGradient id="paint0_linear_1035_385" x1="37.3706" y1="33.7724" x2="98.4671" y2="102.714" gradientUnits="userSpaceOnUse">
<stop stop-color="#00ADEF"/>
<stop offset="1" stop-color="#0084FF"/>
</linearGradient>
<linearGradient id="paint1_linear_1035_385" x1="136.813" y1="81.7231" x2="379.82" y2="81.7231" gradientUnits="userSpaceOnUse">
<stop stop-color="#78E2F2"/>
<stop offset="0.307292" stop-color="#AFB8EE"/>
<stop offset="0.541667" stop-color="#FE7CE8"/>
<stop offset="0.776042" stop-color="#FF6D7F"/>
<stop offset="1" stop-color="#FF9742"/>
</linearGradient>
<linearGradient id="paint2_linear_1035_385" x1="136.813" y1="81.7231" x2="379.82" y2="81.7231" gradientUnits="userSpaceOnUse">
<stop stop-color="#78E2F2"/>
<stop offset="0.307292" stop-color="#AFB8EE"/>
<stop offset="0.541667" stop-color="#FE7CE8"/>
<stop offset="0.776042" stop-color="#FF6D7F"/>
<stop offset="1" stop-color="#FF9742"/>
</linearGradient>
<linearGradient id="paint3_linear_1035_385" x1="136.813" y1="81.7231" x2="379.82" y2="81.7231" gradientUnits="userSpaceOnUse">
<stop stop-color="#78E2F2"/>
<stop offset="0.307292" stop-color="#AFB8EE"/>
<stop offset="0.541667" stop-color="#FE7CE8"/>
<stop offset="0.776042" stop-color="#FF6D7F"/>
<stop offset="1" stop-color="#FF9742"/>
</linearGradient>
<linearGradient id="paint4_linear_1035_385" x1="136.813" y1="81.7231" x2="379.82" y2="81.7231" gradientUnits="userSpaceOnUse">
<stop stop-color="#78E2F2"/>
<stop offset="0.307292" stop-color="#AFB8EE"/>
<stop offset="0.541667" stop-color="#FE7CE8"/>
<stop offset="0.776042" stop-color="#FF6D7F"/>
<stop offset="1" stop-color="#FF9742"/>
</linearGradient>
<linearGradient id="paint5_linear_1035_385" x1="136.813" y1="81.7231" x2="379.82" y2="81.7231" gradientUnits="userSpaceOnUse">
<stop stop-color="#78E2F2"/>
<stop offset="0.307292" stop-color="#AFB8EE"/>
<stop offset="0.541667" stop-color="#FE7CE8"/>
<stop offset="0.776042" stop-color="#FF6D7F"/>
<stop offset="1" stop-color="#FF9742"/>
</linearGradient>
<linearGradient id="paint6_linear_1035_385" x1="136.813" y1="81.7231" x2="379.82" y2="81.7231" gradientUnits="userSpaceOnUse">
<stop stop-color="#78E2F2"/>
<stop offset="0.307292" stop-color="#AFB8EE"/>
<stop offset="0.541667" stop-color="#FE7CE8"/>
<stop offset="0.776042" stop-color="#FF6D7F"/>
<stop offset="1" stop-color="#FF9742"/>
</linearGradient>
<linearGradient id="paint7_linear_1035_385" x1="136.813" y1="81.7231" x2="379.82" y2="81.7231" gradientUnits="userSpaceOnUse">
<stop stop-color="#78E2F2"/>
<stop offset="0.307292" stop-color="#AFB8EE"/>
<stop offset="0.541667" stop-color="#FE7CE8"/>
<stop offset="0.776042" stop-color="#FF6D7F"/>
<stop offset="1" stop-color="#FF9742"/>
</linearGradient>
<clipPath id="clip0_1035_385">
<rect width="98.0682" height="98.0682" fill="white" transform="translate(16.3447 16.3457)"/>
</clipPath>
</defs>
</svg>
