<svg width="543" height="131" viewBox="0 0 543 131" fill="none" xmlns="http://www.w3.org/2000/svg">
<rect y="0.136719" width="542.644" height="130.758" rx="65.3788" fill="white"/>
<rect x="0.5" y="0.636719" width="541.644" height="129.758" rx="64.8788" stroke="black" stroke-opacity="0.1"/>
<path d="M154.033 81.8607V44.2025H165.828C166.176 44.2025 166.821 44.2112 167.763 44.2287C168.722 44.2461 169.637 44.3158 170.509 44.4379C173.455 44.804 175.931 45.8588 177.936 47.6022C179.958 49.3456 181.484 51.5598 182.512 54.2447C183.541 56.9122 184.055 59.8411 184.055 63.0316C184.055 66.2395 183.541 69.1859 182.512 71.8708C181.484 74.5383 179.958 76.7437 177.936 78.4872C175.931 80.2132 173.455 81.2592 170.509 81.6254C169.637 81.7474 168.722 81.8171 167.763 81.8346C166.821 81.852 166.176 81.8607 165.828 81.8607H154.033ZM159.63 76.6566H165.828C166.42 76.6566 167.126 76.6391 167.946 76.6043C168.765 76.5694 169.489 76.4997 170.116 76.395C172.034 76.0289 173.586 75.2008 174.771 73.9107C175.974 72.6031 176.855 70.9991 177.413 69.0988C177.971 67.1984 178.25 65.176 178.25 63.0316C178.25 60.8175 177.962 58.7689 177.387 56.886C176.811 54.9857 175.922 53.3991 174.719 52.1264C173.534 50.8363 171.999 50.0169 170.116 49.6682C169.489 49.5461 168.757 49.4764 167.92 49.459C167.1 49.4241 166.403 49.4067 165.828 49.4067H159.63V76.6566Z" fill="url(#paint0_linear_1035_417)"/>
<path d="M202.671 82.6453C199.864 82.6453 197.397 82.0351 195.27 80.8147C193.161 79.5768 191.513 77.8595 190.328 75.6628C189.16 73.4486 188.576 70.8858 188.576 67.9743C188.576 64.8884 189.151 62.2122 190.302 59.9457C191.47 57.6793 193.091 55.9271 195.166 54.6893C197.241 53.4514 199.655 52.8325 202.41 52.8325C205.287 52.8325 207.736 53.5037 209.758 54.8462C211.781 56.1712 213.289 58.0628 214.283 60.5211C215.294 62.9793 215.695 65.8996 215.486 69.2818H210.02V67.2943C209.985 64.0167 209.357 61.5933 208.137 60.0242C206.934 58.4551 205.095 57.6706 202.619 57.6706C199.882 57.6706 197.825 58.5336 196.447 60.2596C195.07 61.9856 194.381 64.4787 194.381 67.7389C194.381 70.8422 195.07 73.2481 196.447 74.9567C197.825 76.6478 199.812 77.4934 202.41 77.4934C204.118 77.4934 205.592 77.1099 206.829 76.3427C208.085 75.5582 209.061 74.4424 209.758 72.9953L215.119 74.6952C214.021 77.2232 212.356 79.1845 210.125 80.5793C207.893 81.9566 205.409 82.6453 202.671 82.6453ZM192.603 69.2818V65.0191H212.766V69.2818H192.603Z" fill="url(#paint1_linear_1035_417)"/>
<path d="M233.435 82.6453C230.541 82.6453 228.083 82.0002 226.06 80.71C224.038 79.4199 222.486 77.6503 221.405 75.4013C220.342 73.1523 219.801 70.5981 219.784 67.7389C219.801 64.8274 220.359 62.2558 221.458 60.0242C222.556 57.7752 224.125 56.0143 226.165 54.7416C228.205 53.4689 230.654 52.8325 233.513 52.8325C236.599 52.8325 239.232 53.5996 241.411 55.1339C243.608 56.6681 245.055 58.7689 245.752 61.4364L240.313 63.0055C239.772 61.4189 238.883 60.1898 237.645 59.3181C236.425 58.4289 235.021 57.9844 233.435 57.9844C231.639 57.9844 230.166 58.4115 229.015 59.2658C227.865 60.1026 227.01 61.2533 226.452 62.7178C225.895 64.1823 225.607 65.856 225.59 67.7389C225.607 70.6504 226.269 73.0041 227.577 74.7998C228.902 76.5955 230.855 77.4934 233.435 77.4934C235.196 77.4934 236.617 77.0924 237.698 76.2904C238.796 75.471 239.633 74.3029 240.208 72.7861L245.752 74.0937C244.828 76.8483 243.303 78.9666 241.176 80.4485C239.049 81.913 236.469 82.6453 233.435 82.6453Z" fill="url(#paint2_linear_1035_417)"/>
<path d="M262.84 82.6453C260.033 82.6453 257.566 82.0351 255.439 80.8147C253.33 79.5768 251.682 77.8595 250.497 75.6628C249.329 73.4486 248.745 70.8858 248.745 67.9743C248.745 64.8884 249.32 62.2122 250.471 59.9457C251.639 57.6793 253.26 55.9271 255.335 54.6893C257.41 53.4514 259.824 52.8325 262.579 52.8325C265.455 52.8325 267.905 53.5037 269.927 54.8462C271.95 56.1712 273.458 58.0628 274.452 60.5211C275.463 62.9793 275.864 65.8996 275.655 69.2818H270.189V67.2943C270.154 64.0167 269.526 61.5933 268.306 60.0242C267.103 58.4551 265.264 57.6706 262.788 57.6706C260.051 57.6706 257.994 58.5336 256.616 60.2596C255.239 61.9856 254.55 64.4787 254.55 67.7389C254.55 70.8422 255.239 73.2481 256.616 74.9567C257.994 76.6478 259.981 77.4934 262.579 77.4934C264.287 77.4934 265.761 77.1099 266.998 76.3427C268.254 75.5582 269.23 74.4424 269.927 72.9953L275.288 74.6952C274.19 77.2232 272.525 79.1845 270.293 80.5793C268.062 81.9566 265.578 82.6453 262.84 82.6453ZM252.772 69.2818V65.0191H272.935V69.2818H252.772Z" fill="url(#paint3_linear_1035_417)"/>
<path d="M300.579 81.8607V67.9743C300.579 66.8759 300.483 65.7514 300.291 64.6007C300.117 63.4326 299.768 62.3517 299.245 61.3579C298.739 60.3642 298.016 59.5622 297.074 58.952C296.15 58.3418 294.939 58.0367 293.439 58.0367C292.463 58.0367 291.539 58.2023 290.667 58.5336C289.795 58.8474 289.028 59.3617 288.366 60.0765C287.721 60.7913 287.206 61.7328 286.823 62.9009C286.457 64.069 286.274 65.4899 286.274 67.1636L282.874 65.8821C282.874 63.3193 283.353 61.0615 284.312 59.1089C285.271 57.1388 286.649 55.6046 288.444 54.5062C290.24 53.4079 292.411 52.8587 294.956 52.8587C296.909 52.8587 298.548 53.1725 299.873 53.8001C301.198 54.4278 302.27 55.2559 303.089 56.2845C303.926 57.2957 304.562 58.4028 304.998 59.6058C305.434 60.8087 305.73 61.9856 305.887 63.1362C306.044 64.2869 306.123 65.2981 306.123 66.1698V81.8607H300.579ZM280.73 81.8607V53.6171H285.62V61.7763H286.274V81.8607H280.73Z" fill="url(#paint4_linear_1035_417)"/>
<path d="M329.096 81.8607C327.318 82.2094 325.574 82.3576 323.866 82.3053C322.157 82.253 320.632 81.9217 319.289 81.3115C317.947 80.7013 316.936 79.7424 316.256 78.4349C315.645 77.2668 315.314 76.0812 315.262 74.8783C315.227 73.6579 315.21 72.2805 315.21 70.7463V45.7716H320.701V70.4848C320.701 71.618 320.71 72.6031 320.728 73.4399C320.762 74.2768 320.945 74.9829 321.277 75.5582C321.904 76.6391 322.898 77.258 324.258 77.415C325.635 77.5544 327.248 77.4934 329.096 77.2319V81.8607ZM309.796 58.0105V53.6171H329.096V58.0105H309.796Z" fill="url(#paint5_linear_1035_417)"/>
<path d="M335.051 81.8607V53.6171H339.915V60.4688L339.235 59.5796C339.584 58.673 340.037 57.8449 340.595 57.0952C341.153 56.3281 341.798 55.7005 342.53 55.2123C343.245 54.6893 344.038 54.2883 344.91 54.0093C345.799 53.713 346.706 53.5386 347.63 53.4863C348.554 53.4166 349.443 53.4602 350.297 53.6171V58.7428C349.373 58.4987 348.344 58.4289 347.211 58.5336C346.095 58.6382 345.067 58.9956 344.125 59.6058C343.236 60.1811 342.53 60.8785 342.007 61.6979C341.502 62.5173 341.135 63.4326 340.909 64.4438C340.682 65.4376 340.569 66.4923 340.569 67.6081V81.8607H335.051Z" fill="url(#paint6_linear_1035_417)"/>
<path d="M362.436 82.6453C360.344 82.6453 358.592 82.2617 357.18 81.4946C355.768 80.71 354.696 79.6814 353.963 78.4087C353.248 77.1186 352.891 75.7064 352.891 74.1722C352.891 72.7425 353.144 71.4873 353.649 70.4063C354.155 69.3254 354.905 68.4101 355.898 67.6604C356.892 66.8933 358.113 66.2744 359.56 65.8037C360.815 65.4376 362.236 65.115 363.822 64.8361C365.409 64.5571 367.074 64.2956 368.817 64.0515C370.578 63.8074 372.322 63.5634 374.048 63.3193L372.06 64.4176C372.095 62.2035 371.624 60.5647 370.648 59.5012C369.689 58.4202 368.033 57.8798 365.679 57.8798C364.197 57.8798 362.837 58.2284 361.6 58.9258C360.362 59.6058 359.499 60.739 359.01 62.3255L353.911 60.7564C354.608 58.3331 355.933 56.4066 357.886 54.9769C359.856 53.5473 362.471 52.8325 365.731 52.8325C368.259 52.8325 370.456 53.2684 372.322 54.1401C374.205 54.9944 375.582 56.3543 376.454 58.2197C376.907 59.1438 377.186 60.1201 377.29 61.1487C377.395 62.1773 377.447 63.2844 377.447 64.4699V81.8607H372.609V75.4013L373.551 76.2381C372.383 78.4 370.892 80.0127 369.079 81.0762C367.283 82.1222 365.069 82.6453 362.436 82.6453ZM363.404 78.1733C364.956 78.1733 366.289 77.9031 367.405 77.3627C368.521 76.8048 369.419 76.0987 370.099 75.2444C370.779 74.3901 371.223 73.5009 371.432 72.5769C371.729 71.7401 371.895 70.7986 371.929 69.7526C371.982 68.7065 372.008 67.8696 372.008 67.242L373.786 67.8958C372.06 68.1573 370.491 68.3927 369.079 68.6019C367.667 68.8111 366.385 69.0203 365.235 69.2295C364.101 69.4213 363.09 69.6567 362.201 69.9356C361.451 70.1971 360.78 70.511 360.187 70.8771C359.612 71.2432 359.15 71.6878 358.801 72.2108C358.47 72.7338 358.304 73.3702 358.304 74.1199C358.304 74.8521 358.487 75.532 358.854 76.1597C359.22 76.7699 359.778 77.258 360.527 77.6242C361.277 77.9903 362.236 78.1733 363.404 78.1733Z" fill="url(#paint7_linear_1035_417)"/>
<path d="M384.761 81.8607V43.418H390.227V81.8607H384.761Z" fill="url(#paint8_linear_1035_417)"/>
<path d="M406.056 82.6453C403.964 82.6453 402.212 82.2617 400.8 81.4946C399.388 80.71 398.315 79.6814 397.583 78.4087C396.868 77.1186 396.511 75.7064 396.511 74.1722C396.511 72.7425 396.764 71.4873 397.269 70.4063C397.775 69.3254 398.525 68.4101 399.518 67.6604C400.512 66.8933 401.733 66.2744 403.18 65.8037C404.435 65.4376 405.856 65.115 407.442 64.8361C409.029 64.5571 410.694 64.2956 412.437 64.0515C414.198 63.8074 415.942 63.5634 417.668 63.3193L415.68 64.4176C415.715 62.2035 415.244 60.5647 414.268 59.5012C413.309 58.4202 411.653 57.8798 409.299 57.8798C407.817 57.8798 406.457 58.2284 405.219 58.9258C403.982 59.6058 403.119 60.739 402.63 62.3255L397.531 60.7564C398.228 58.3331 399.553 56.4066 401.506 54.9769C403.476 53.5473 406.091 52.8325 409.351 52.8325C411.879 52.8325 414.076 53.2684 415.942 54.1401C417.824 54.9944 419.202 56.3543 420.073 58.2197C420.527 59.1438 420.806 60.1201 420.91 61.1487C421.015 62.1773 421.067 63.2844 421.067 64.4699V81.8607H416.229V75.4013L417.171 76.2381C416.003 78.4 414.512 80.0127 412.699 81.0762C410.903 82.1222 408.689 82.6453 406.056 82.6453ZM407.024 78.1733C408.576 78.1733 409.909 77.9031 411.025 77.3627C412.141 76.8048 413.039 76.0987 413.719 75.2444C414.399 74.3901 414.843 73.5009 415.052 72.5769C415.349 71.7401 415.514 70.7986 415.549 69.7526C415.602 68.7065 415.628 67.8696 415.628 67.242L417.406 67.8958C415.68 68.1573 414.111 68.3927 412.699 68.6019C411.287 68.8111 410.005 69.0203 408.854 69.2295C407.721 69.4213 406.71 69.6567 405.821 69.9356C405.071 70.1971 404.4 70.511 403.807 70.8771C403.232 71.2432 402.77 71.6878 402.421 72.2108C402.09 72.7338 401.924 73.3702 401.924 74.1199C401.924 74.8521 402.107 75.532 402.474 76.1597C402.84 76.7699 403.398 77.258 404.147 77.6242C404.897 77.9903 405.856 78.1733 407.024 78.1733Z" fill="url(#paint9_linear_1035_417)"/>
<path d="M447.681 81.8607V67.9743C447.681 66.8759 447.585 65.7514 447.393 64.6007C447.219 63.4326 446.87 62.3517 446.347 61.3579C445.842 60.3642 445.118 59.5622 444.177 58.952C443.253 58.3418 442.041 58.0367 440.542 58.0367C439.565 58.0367 438.641 58.2023 437.77 58.5336C436.898 58.8474 436.131 59.3617 435.468 60.0765C434.823 60.7913 434.309 61.7328 433.925 62.9009C433.559 64.069 433.376 65.4899 433.376 67.1636L429.976 65.8821C429.976 63.3193 430.456 61.0615 431.415 59.1089C432.374 57.1388 433.751 55.6046 435.547 54.5062C437.342 53.4079 439.513 52.8587 442.058 52.8587C444.011 52.8587 445.65 53.1725 446.975 53.8001C448.3 54.4278 449.372 55.2559 450.191 56.2845C451.028 57.2957 451.665 58.4028 452.101 59.6058C452.536 60.8087 452.833 61.9856 452.99 63.1362C453.147 64.2869 453.225 65.2981 453.225 66.1698V81.8607H447.681ZM427.832 81.8607V53.6171H432.722V61.7763H433.376V81.8607H427.832Z" fill="url(#paint10_linear_1035_417)"/>
<path d="M470.898 82.6453C468.266 82.6453 465.99 81.9915 464.073 80.6839C462.172 79.3763 460.699 77.598 459.653 75.349C458.624 73.0825 458.11 70.5371 458.11 67.7127C458.11 64.8709 458.633 62.3342 459.679 60.1026C460.725 57.8536 462.207 56.084 464.125 54.7939C466.06 53.4863 468.353 52.8325 471.003 52.8325C473.67 52.8325 475.911 53.4863 477.724 54.7939C479.554 56.084 480.932 57.8536 481.856 60.1026C482.797 62.3517 483.268 64.8884 483.268 67.7127C483.268 70.5371 482.797 73.0738 481.856 75.3228C480.914 77.5719 479.528 79.3589 477.698 80.6839C475.867 81.9915 473.6 82.6453 470.898 82.6453ZM471.657 77.7026C473.452 77.7026 474.917 77.2755 476.05 76.4212C477.183 75.5669 478.011 74.3901 478.534 72.8907C479.057 71.3914 479.319 69.6654 479.319 67.7127C479.319 65.7601 479.049 64.0341 478.508 62.5347C477.985 61.0354 477.166 59.8673 476.05 59.0304C474.952 58.1936 473.548 57.7752 471.84 57.7752C470.026 57.7752 468.536 58.2197 467.368 59.1089C466.2 59.998 465.328 61.1923 464.753 62.6916C464.195 64.191 463.916 65.8647 463.916 67.7127C463.916 69.5782 464.195 71.2693 464.753 72.7861C465.328 74.2855 466.182 75.4797 467.315 76.3689C468.466 77.258 469.913 77.7026 471.657 77.7026ZM479.319 81.8607V61.541H478.691V44.2025H484.183V81.8607H479.319Z" fill="url(#paint11_linear_1035_417)"/>
<g clip-path="url(#clip0_1035_417)">
<path d="M65.3788 114.551C92.4596 114.551 114.413 92.5973 114.413 65.5165C114.413 38.4357 92.4596 16.4824 65.3788 16.4824C38.298 16.4824 16.3447 38.4357 16.3447 65.5165C16.3447 92.5973 38.298 114.551 65.3788 114.551Z" fill="url(#paint12_linear_1035_417)"/>
<path fill-rule="evenodd" clip-rule="evenodd" d="M51.085 48.3555V85.1311H81.7313L51.085 48.3555Z" fill="url(#paint13_linear_1035_417)"/>
<path fill-rule="evenodd" clip-rule="evenodd" d="M20.4395 85.1311H51.0858V48.3555L20.4395 85.1311Z" fill="white"/>
<path fill-rule="evenodd" clip-rule="evenodd" d="M26.1514 94.9375C28.9463 98.6396 32.2561 101.949 35.9582 104.744H94.7991C98.5012 101.949 101.811 98.6396 104.606 94.9375H26.1514Z" fill="#FC9965"/>
<path fill-rule="evenodd" clip-rule="evenodd" d="M35.958 104.744C44.1467 110.898 54.3458 114.551 65.3785 114.551C76.4112 114.551 86.6102 110.898 94.7989 104.744H35.958Z" fill="#FF2D55"/>
<path fill-rule="evenodd" clip-rule="evenodd" d="M82.124 67.9688V94.9375H104.606L82.124 67.9688Z" fill="url(#paint14_linear_1035_417)"/>
<path fill-rule="evenodd" clip-rule="evenodd" d="M82.1244 85.1309H20.4395C21.9595 88.6368 23.8964 91.9221 26.1519 94.9377H82.1489V85.1309H82.1244Z" fill="#FFBC5B"/>
<path fill-rule="evenodd" clip-rule="evenodd" d="M59.666 94.9375H82.1236V67.9688L59.666 94.9375Z" fill="white"/>
<path d="M82.1238 60.6128C88.894 60.6128 94.3823 55.1244 94.3823 48.3542C94.3823 41.584 88.894 36.0957 82.1238 36.0957C75.3536 36.0957 69.8652 41.584 69.8652 48.3542C69.8652 55.1244 75.3536 60.6128 82.1238 60.6128Z" fill="#FFC95B"/>
<path d="M51.0853 40.9988C54.4704 40.9988 57.2146 38.2546 57.2146 34.8695C57.2146 31.4844 54.4704 28.7402 51.0853 28.7402C47.7002 28.7402 44.9561 31.4844 44.9561 34.8695C44.9561 38.2546 47.7002 40.9988 51.0853 40.9988Z" fill="#FFC95B"/>
</g>
<defs>
<linearGradient id="paint0_linear_1035_417" x1="129.326" y1="81.8599" x2="506.531" y2="81.8599" gradientUnits="userSpaceOnUse">
<stop stop-color="#78E2F2"/>
<stop offset="0.307292" stop-color="#AFB8EE"/>
<stop offset="0.541667" stop-color="#FE7CE8"/>
<stop offset="0.776042" stop-color="#FF6D7F"/>
<stop offset="1" stop-color="#FF9742"/>
</linearGradient>
<linearGradient id="paint1_linear_1035_417" x1="129.326" y1="81.8599" x2="506.531" y2="81.8599" gradientUnits="userSpaceOnUse">
<stop stop-color="#78E2F2"/>
<stop offset="0.307292" stop-color="#AFB8EE"/>
<stop offset="0.541667" stop-color="#FE7CE8"/>
<stop offset="0.776042" stop-color="#FF6D7F"/>
<stop offset="1" stop-color="#FF9742"/>
</linearGradient>
<linearGradient id="paint2_linear_1035_417" x1="129.326" y1="81.8599" x2="506.531" y2="81.8599" gradientUnits="userSpaceOnUse">
<stop stop-color="#78E2F2"/>
<stop offset="0.307292" stop-color="#AFB8EE"/>
<stop offset="0.541667" stop-color="#FE7CE8"/>
<stop offset="0.776042" stop-color="#FF6D7F"/>
<stop offset="1" stop-color="#FF9742"/>
</linearGradient>
<linearGradient id="paint3_linear_1035_417" x1="129.326" y1="81.8599" x2="506.531" y2="81.8599" gradientUnits="userSpaceOnUse">
<stop stop-color="#78E2F2"/>
<stop offset="0.307292" stop-color="#AFB8EE"/>
<stop offset="0.541667" stop-color="#FE7CE8"/>
<stop offset="0.776042" stop-color="#FF6D7F"/>
<stop offset="1" stop-color="#FF9742"/>
</linearGradient>
<linearGradient id="paint4_linear_1035_417" x1="129.326" y1="81.8599" x2="506.531" y2="81.8599" gradientUnits="userSpaceOnUse">
<stop stop-color="#78E2F2"/>
<stop offset="0.307292" stop-color="#AFB8EE"/>
<stop offset="0.541667" stop-color="#FE7CE8"/>
<stop offset="0.776042" stop-color="#FF6D7F"/>
<stop offset="1" stop-color="#FF9742"/>
</linearGradient>
<linearGradient id="paint5_linear_1035_417" x1="129.326" y1="81.8599" x2="506.531" y2="81.8599" gradientUnits="userSpaceOnUse">
<stop stop-color="#78E2F2"/>
<stop offset="0.307292" stop-color="#AFB8EE"/>
<stop offset="0.541667" stop-color="#FE7CE8"/>
<stop offset="0.776042" stop-color="#FF6D7F"/>
<stop offset="1" stop-color="#FF9742"/>
</linearGradient>
<linearGradient id="paint6_linear_1035_417" x1="129.326" y1="81.8599" x2="506.531" y2="81.8599" gradientUnits="userSpaceOnUse">
<stop stop-color="#78E2F2"/>
<stop offset="0.307292" stop-color="#AFB8EE"/>
<stop offset="0.541667" stop-color="#FE7CE8"/>
<stop offset="0.776042" stop-color="#FF6D7F"/>
<stop offset="1" stop-color="#FF9742"/>
</linearGradient>
<linearGradient id="paint7_linear_1035_417" x1="129.326" y1="81.8599" x2="506.531" y2="81.8599" gradientUnits="userSpaceOnUse">
<stop stop-color="#78E2F2"/>
<stop offset="0.307292" stop-color="#AFB8EE"/>
<stop offset="0.541667" stop-color="#FE7CE8"/>
<stop offset="0.776042" stop-color="#FF6D7F"/>
<stop offset="1" stop-color="#FF9742"/>
</linearGradient>
<linearGradient id="paint8_linear_1035_417" x1="129.326" y1="81.8599" x2="506.531" y2="81.8599" gradientUnits="userSpaceOnUse">
<stop stop-color="#78E2F2"/>
<stop offset="0.307292" stop-color="#AFB8EE"/>
<stop offset="0.541667" stop-color="#FE7CE8"/>
<stop offset="0.776042" stop-color="#FF6D7F"/>
<stop offset="1" stop-color="#FF9742"/>
</linearGradient>
<linearGradient id="paint9_linear_1035_417" x1="129.326" y1="81.8599" x2="506.531" y2="81.8599" gradientUnits="userSpaceOnUse">
<stop stop-color="#78E2F2"/>
<stop offset="0.307292" stop-color="#AFB8EE"/>
<stop offset="0.541667" stop-color="#FE7CE8"/>
<stop offset="0.776042" stop-color="#FF6D7F"/>
<stop offset="1" stop-color="#FF9742"/>
</linearGradient>
<linearGradient id="paint10_linear_1035_417" x1="129.326" y1="81.8599" x2="506.531" y2="81.8599" gradientUnits="userSpaceOnUse">
<stop stop-color="#78E2F2"/>
<stop offset="0.307292" stop-color="#AFB8EE"/>
<stop offset="0.541667" stop-color="#FE7CE8"/>
<stop offset="0.776042" stop-color="#FF6D7F"/>
<stop offset="1" stop-color="#FF9742"/>
</linearGradient>
<linearGradient id="paint11_linear_1035_417" x1="129.326" y1="81.8599" x2="506.531" y2="81.8599" gradientUnits="userSpaceOnUse">
<stop stop-color="#78E2F2"/>
<stop offset="0.307292" stop-color="#AFB8EE"/>
<stop offset="0.541667" stop-color="#FE7CE8"/>
<stop offset="0.776042" stop-color="#FF6D7F"/>
<stop offset="1" stop-color="#FF9742"/>
</linearGradient>
<linearGradient id="paint12_linear_1035_417" x1="100.051" y1="30.8445" x2="30.7068" y2="100.189" gradientUnits="userSpaceOnUse">
<stop stop-color="#FF2D55"/>
<stop offset="1" stop-color="#FFBC5B"/>
</linearGradient>
<linearGradient id="paint13_linear_1035_417" x1="66.3977" y1="48.3555" x2="66.3977" y2="85.1311" gradientUnits="userSpaceOnUse">
<stop stop-color="#A524B3"/>
<stop offset="1" stop-color="#FF2D55"/>
</linearGradient>
<linearGradient id="paint14_linear_1035_417" x1="93.3575" y1="67.9688" x2="93.3575" y2="94.9375" gradientUnits="userSpaceOnUse">
<stop stop-color="#A524B3"/>
<stop offset="1" stop-color="#FF2D55"/>
</linearGradient>
<clipPath id="clip0_1035_417">
<rect width="98.0682" height="98.0682" fill="white" transform="translate(16.3447 16.4824)"/>
</clipPath>
</defs>
</svg>
