<svg width="386" height="131" viewBox="0 0 386 131" fill="none" xmlns="http://www.w3.org/2000/svg">
<rect width="385.735" height="130.758" rx="65.3788" fill="white"/>
<rect x="0.5" y="0.5" width="384.735" height="129.758" rx="64.8788" stroke="black" stroke-opacity="0.1"/>
<path d="M152.986 81.7246V80.8616L172.208 49.2183H154.032V44.0664H181.596V44.9556L162.479 76.5466H181.256V81.7246H152.986Z" fill="url(#paint0_linear_1035_448)"/>
<path d="M200.423 82.5092C197.616 82.5092 195.149 81.899 193.022 80.6785C190.913 79.4407 189.265 77.7234 188.08 75.5267C186.912 73.3125 186.327 70.7497 186.327 67.8381C186.327 64.7523 186.903 62.0761 188.053 59.8096C189.222 57.5432 190.843 55.791 192.918 54.5532C194.992 53.3153 197.407 52.6964 200.162 52.6964C203.038 52.6964 205.488 53.3676 207.51 54.7101C209.533 56.0351 211.041 57.9267 212.034 60.385C213.046 62.8432 213.447 65.7635 213.237 69.1457H207.772V67.1582C207.737 63.8805 207.109 61.4572 205.889 59.8881C204.686 58.319 202.847 57.5344 200.371 57.5344C197.634 57.5344 195.576 58.3974 194.199 60.1234C192.822 61.8494 192.133 64.3426 192.133 67.6028C192.133 70.7061 192.822 73.112 194.199 74.8206C195.576 76.5117 197.564 77.3573 200.162 77.3573C201.87 77.3573 203.343 76.9737 204.581 76.2066C205.837 75.4221 206.813 74.3063 207.51 72.8592L212.871 74.5591C211.773 77.0871 210.108 79.0484 207.876 80.4432C205.645 81.8205 203.16 82.5092 200.423 82.5092ZM190.355 69.1457V64.883H210.518V69.1457H190.355Z" fill="url(#paint1_linear_1035_448)"/>
<path d="M231.597 82.5092C228.895 82.5092 226.629 81.8554 224.798 80.5478C222.967 79.2228 221.581 77.4358 220.64 75.1867C219.698 72.9377 219.228 70.401 219.228 67.5766C219.228 64.7523 219.69 62.2156 220.614 59.9665C221.555 57.7175 222.933 55.9479 224.746 54.6578C226.576 53.3502 228.825 52.6964 231.493 52.6964C234.143 52.6964 236.427 53.3502 238.344 54.6578C240.28 55.9479 241.77 57.7175 242.816 59.9665C243.862 62.1981 244.385 64.7348 244.385 67.5766C244.385 70.401 243.862 72.9464 242.816 75.2129C241.788 77.4619 240.315 79.2402 238.397 80.5478C236.496 81.8554 234.23 82.5092 231.597 82.5092ZM218.312 94.2773V53.481H223.177V73.8007H223.804V94.2773H218.312ZM230.839 77.5665C232.582 77.5665 234.021 77.1219 235.154 76.2328C236.305 75.3436 237.159 74.1494 237.717 72.65C238.292 71.1332 238.58 69.4421 238.58 67.5766C238.58 65.7286 238.292 64.0549 237.717 62.5555C237.159 61.0562 236.296 59.8619 235.128 58.9728C233.96 58.0836 232.469 57.639 230.656 57.639C228.947 57.639 227.535 58.0575 226.419 58.8943C225.321 59.7312 224.502 60.8993 223.961 62.3986C223.438 63.898 223.177 65.624 223.177 67.5766C223.177 69.5293 223.438 71.2553 223.961 72.7546C224.484 74.254 225.312 75.4308 226.446 76.2851C227.579 77.1394 229.043 77.5665 230.839 77.5665Z" fill="url(#paint2_linear_1035_448)"/>
<path d="M262.686 82.5092C259.879 82.5092 257.412 81.899 255.285 80.6785C253.176 79.4407 251.528 77.7234 250.343 75.5267C249.175 73.3125 248.591 70.7497 248.591 67.8381C248.591 64.7523 249.166 62.0761 250.317 59.8096C251.485 57.5432 253.106 55.791 255.181 54.5532C257.255 53.3153 259.67 52.6964 262.425 52.6964C265.301 52.6964 267.751 53.3676 269.773 54.7101C271.796 56.0351 273.304 57.9267 274.298 60.385C275.309 62.8432 275.71 65.7635 275.501 69.1457H270.035V67.1582C270 63.8805 269.372 61.4572 268.152 59.8881C266.949 58.319 265.11 57.5344 262.634 57.5344C259.897 57.5344 257.84 58.3974 256.462 60.1234C255.085 61.8494 254.396 64.3426 254.396 67.6028C254.396 70.7061 255.085 73.112 256.462 74.8206C257.84 76.5117 259.827 77.3573 262.425 77.3573C264.133 77.3573 265.607 76.9737 266.844 76.2066C268.1 75.4221 269.076 74.3063 269.773 72.8592L275.134 74.5591C274.036 77.0871 272.371 79.0484 270.139 80.4432C267.908 81.8205 265.423 82.5092 262.686 82.5092ZM252.618 69.1457V64.883H272.781V69.1457H252.618Z" fill="url(#paint3_linear_1035_448)"/>
<path d="M297.529 81.7246C295.751 82.0733 294.008 82.2215 292.299 82.1692C290.591 82.1169 289.065 81.7856 287.723 81.1754C286.38 80.5652 285.369 79.6063 284.689 78.2988C284.079 77.1307 283.748 75.9451 283.695 74.7422C283.66 73.5217 283.643 72.1444 283.643 70.6102V45.6355H289.135V70.3487C289.135 71.4819 289.144 72.467 289.161 73.3038C289.196 74.1407 289.379 74.8468 289.71 75.4221C290.338 76.503 291.332 77.1219 292.691 77.2789C294.069 77.4183 295.681 77.3573 297.529 77.0958V81.7246ZM278.23 57.8744V53.481H297.529V57.8744H278.23Z" fill="url(#paint4_linear_1035_448)"/>
<path d="M314.472 82.5092C311.648 82.5092 309.199 81.8728 307.124 80.6001C305.049 79.3274 303.445 77.5752 302.312 75.3436C301.196 73.0946 300.638 70.5056 300.638 67.5766C300.638 64.6302 301.214 62.0412 302.364 59.8096C303.515 57.5606 305.128 55.8172 307.202 54.5793C309.277 53.324 311.7 52.6964 314.472 52.6964C317.297 52.6964 319.746 53.3328 321.821 54.6055C323.896 55.8782 325.5 57.6303 326.633 59.8619C327.766 62.0935 328.333 64.6651 328.333 67.5766C328.333 70.523 327.757 73.1208 326.607 75.3698C325.473 77.6014 323.87 79.3535 321.795 80.6262C319.72 81.8815 317.279 82.5092 314.472 82.5092ZM314.472 77.3573C317.175 77.3573 319.188 76.4507 320.513 74.6375C321.856 72.8069 322.527 70.4533 322.527 67.5766C322.527 64.6302 321.847 62.2766 320.487 60.5157C319.145 58.7374 317.14 57.8483 314.472 57.8483C312.642 57.8483 311.134 58.2667 309.948 59.1035C308.763 59.9229 307.882 61.0649 307.307 62.5294C306.732 63.9764 306.444 65.6589 306.444 67.5766C306.444 70.5405 307.124 72.9115 308.484 74.6898C309.844 76.4681 311.84 77.3573 314.472 77.3573Z" fill="url(#paint5_linear_1035_448)"/>
<mask id="mask0_1035_448" style="mask-type:alpha" maskUnits="userSpaceOnUse" x="16" y="16" width="99" height="99">
<circle cx="65.3779" cy="65.3818" r="49.0341" fill="#D9D9D9"/>
</mask>
<g mask="url(#mask0_1035_448)">
<path d="M114.202 114.769C134.732 94.2385 129.314 55.5347 102.1 28.3218C74.8862 1.10886 36.1822 -4.3082 15.6522 16.2224C-4.87771 36.7531 0.540705 75.4569 27.7546 102.67C54.9685 129.883 93.6725 135.3 114.202 114.769Z" fill="#1E88E5"/>
<path d="M82.6064 91.0352H47.2114C43.5766 91.0352 40.2984 88.8477 38.908 85.4856C37.5176 82.1235 38.2847 78.258 40.8557 75.687L60.1534 56.3893H47.3971C42.4319 56.3893 38.4076 52.365 38.4076 47.3997C38.4076 42.4345 42.4319 38.4102 47.3971 38.4102H81.8572C85.492 38.4102 88.7702 40.5976 90.1606 43.9597C91.551 47.3218 90.7839 51.1874 88.2129 53.7584L68.9122 73.059H82.6064C87.5716 73.059 91.596 77.0834 91.596 82.0486C91.596 87.0139 87.5716 91.0352 82.6064 91.0352Z" fill="white"/>
</g>
<defs>
<linearGradient id="paint0_linear_1035_448" x1="139.039" y1="81.7231" x2="342.15" y2="81.7231" gradientUnits="userSpaceOnUse">
<stop stop-color="#78E2F2"/>
<stop offset="0.307292" stop-color="#AFB8EE"/>
<stop offset="0.541667" stop-color="#FE7CE8"/>
<stop offset="0.776042" stop-color="#FF6D7F"/>
<stop offset="1" stop-color="#FF9742"/>
</linearGradient>
<linearGradient id="paint1_linear_1035_448" x1="139.039" y1="81.7231" x2="342.15" y2="81.7231" gradientUnits="userSpaceOnUse">
<stop stop-color="#78E2F2"/>
<stop offset="0.307292" stop-color="#AFB8EE"/>
<stop offset="0.541667" stop-color="#FE7CE8"/>
<stop offset="0.776042" stop-color="#FF6D7F"/>
<stop offset="1" stop-color="#FF9742"/>
</linearGradient>
<linearGradient id="paint2_linear_1035_448" x1="139.039" y1="81.7231" x2="342.15" y2="81.7231" gradientUnits="userSpaceOnUse">
<stop stop-color="#78E2F2"/>
<stop offset="0.307292" stop-color="#AFB8EE"/>
<stop offset="0.541667" stop-color="#FE7CE8"/>
<stop offset="0.776042" stop-color="#FF6D7F"/>
<stop offset="1" stop-color="#FF9742"/>
</linearGradient>
<linearGradient id="paint3_linear_1035_448" x1="139.039" y1="81.7231" x2="342.15" y2="81.7231" gradientUnits="userSpaceOnUse">
<stop stop-color="#78E2F2"/>
<stop offset="0.307292" stop-color="#AFB8EE"/>
<stop offset="0.541667" stop-color="#FE7CE8"/>
<stop offset="0.776042" stop-color="#FF6D7F"/>
<stop offset="1" stop-color="#FF9742"/>
</linearGradient>
<linearGradient id="paint4_linear_1035_448" x1="139.039" y1="81.7231" x2="342.15" y2="81.7231" gradientUnits="userSpaceOnUse">
<stop stop-color="#78E2F2"/>
<stop offset="0.307292" stop-color="#AFB8EE"/>
<stop offset="0.541667" stop-color="#FE7CE8"/>
<stop offset="0.776042" stop-color="#FF6D7F"/>
<stop offset="1" stop-color="#FF9742"/>
</linearGradient>
<linearGradient id="paint5_linear_1035_448" x1="139.039" y1="81.7231" x2="342.15" y2="81.7231" gradientUnits="userSpaceOnUse">
<stop stop-color="#78E2F2"/>
<stop offset="0.307292" stop-color="#AFB8EE"/>
<stop offset="0.541667" stop-color="#FE7CE8"/>
<stop offset="0.776042" stop-color="#FF6D7F"/>
<stop offset="1" stop-color="#FF9742"/>
</linearGradient>
</defs>
</svg>
